<?xml version="1.0" standalone="no"?>
<!DOCTYPE svg PUBLIC "-//W3C//DTD SVG 1.1//EN" "http://www.w3.org/Graphics/SVG/1.1/DTD/svg11.dtd" >
<!--
2013-9-30: Created.
-->
<svg>
<metadata>
Created by iconfont
</metadata>
<defs>

<font id="icon" horiz-adv-x="1024" >
  <font-face
    font-family="icon"
    font-weight="500"
    font-stretch="normal"
    units-per-em="1024"
    ascent="896"
    descent="-128"
  />
    <missing-glyph />
    
    <glyph glyph-name="x" unicode="x" horiz-adv-x="1001"
d="M281 543q-27 -1 -53 -1h-83q-18 0 -36.5 -6t-32.5 -18.5t-23 -32t-9 -45.5v-76h912v41q0 16 -0.5 30t-0.5 18q0 13 -5 29t-17 29.5t-31.5 22.5t-49.5 9h-133v-97h-438v97zM955 310v-52q0 -23 0.5 -52t0.5 -58t-10.5 -47.5t-26 -30t-33 -16t-31.5 -4.5q-14 -1 -29.5 -0.5
t-29.5 0.5h-32l-45 128h-439l-44 -128h-29h-34q-20 0 -45 1q-25 0 -41 9.5t-25.5 23t-13.5 29.5t-4 30v167h911zM163 247q-12 0 -21 -8.5t-9 -21.5t9 -21.5t21 -8.5q13 0 22 8.5t9 21.5t-9 21.5t-22 8.5zM316 123q-8 -26 -14 -48q-5 -19 -10.5 -37t-7.5 -25t-3 -15t1 -14.5
t9.5 -10.5t21.5 -4h37h67h81h80h64h36q23 0 34 12t2 38q-5 13 -9.5 30.5t-9.5 34.5q-5 19 -11 39h-368zM336 498v228q0 11 2.5 23t10 21.5t20.5 15.5t34 6h188q31 0 51.5 -14.5t20.5 -52.5v-227h-327z" />
    

    
    <glyph glyph-name="cog" unicode="&#58880;" d="M992 293.94v180.18l-137.58 22.92c-5.58 16.98-12.42 33.42-20.34 49.2l81.060 113.46-127.38 127.38-113.28-80.94c-15.84 8.040-32.4 14.88-49.5 20.52l-22.86 137.28h-180.18l-22.86-137.28c-17.1-5.64-33.6-12.54-49.44-20.52l-113.28 80.94-127.38-127.38 81.060-113.46c-7.92-15.78-14.76-32.22-20.34-49.2l-137.58-22.92v-180.18l137.94-22.98c5.58-16.86 12.36-33.12 20.28-48.78l-81.3-113.88 127.38-127.38 114.060 81.48c15.54-7.8 31.8-14.58 48.54-20.1l23.040-138.24h180.18l23.040 138.24c16.74 5.52 32.94 12.24 48.54 20.1l114.060-81.48 127.38 127.38-81.3 113.88c7.92 15.66 14.7 31.92 20.28 48.78l137.94 22.98zM512 264c-66.3 0-120 53.7-120 120s53.7 120 120 120c66.3 0 120-53.7 120-120 0-66.3-53.7-120-120-120z"  horiz-adv-x="1024" />

    
    <glyph glyph-name="link" unicode="&#59051;" d="M940.76 473.34l-88.74-88.62c-55.32-55.32-137.46-66.42-204.24-34.62l204.24 204.3c23.46 23.46 23.46 61.44 0 84.84l-84.78 84.96c-23.46 23.46-61.38 23.46-84.84 0l-204.3-204.36c-31.8 66.84-20.7 148.98 34.62 204.36l88.56 88.62c70.32 70.26 184.32 70.26 254.52 0l84.96-84.84c70.2-70.32 70.2-184.32 0-254.64zM343.040 215.1c-23.46 23.46-23.46 61.38 0 84.84l254.52 254.52c23.46 23.46 61.38 23.46 84.84 0s23.46-61.38 0-84.84l-254.52-254.52c-23.4-23.46-61.44-23.46-84.84 0zM173.3 130.2l84.84-84.84c23.46-23.46 61.38-23.46 84.84 0l204.36 204.36c31.8-66.84 20.7-148.98-34.62-204.36l-81.12-88.62c-70.32-70.32-184.26-70.32-254.58 0l-92.4 92.34c-70.26 70.32-70.26 184.26 0 254.58l88.62 81.12c55.44 55.32 137.52 66.42 204.42 34.62l-204.36-204.3c-23.4-23.46-23.4-61.5 0-84.9z"  horiz-adv-x="1024" />

    
    <glyph glyph-name="more" unicode="&#58907;" d="M893.458 264.791c-65.841 0-119.209 53.366-119.209 119.209s53.366 119.237 119.209 119.237 119.209-53.395 119.209-119.237-53.366-119.209-119.209-119.209zM515.971 264.791c-65.841 0-119.237 53.366-119.237 119.209s53.366 119.237 119.237 119.237c65.813 0 119.209-53.395 119.209-119.237s-53.395-119.209-119.209-119.209zM138.483 264.791c-65.841 0-119.237 53.366-119.237 119.209s53.366 119.237 119.237 119.237c65.813 0 119.209-53.395 119.209-119.237s-53.395-119.209-119.209-119.209z"  horiz-adv-x="1024" />

    
    <glyph glyph-name="qq" unicode="&#58889;" d="M114.026 312.768c-33.789-84.164-39.38-164.415-12.166-179.325 18.827-10.347 48.141 13.326 75.732 56.387 10.948-47.162 37.932-89.477 76.519-123.684-40.405-15.749-66.877-41.476-66.877-70.557 0-47.908 71.489-86.588 159.661-86.588 79.55 0 145.447 31.41 157.607 72.794 3.218 0 15.85 0 18.923 0 12.397-41.385 78.151-72.794 157.794-72.794 88.269 0 159.661 38.681 159.661 86.588 0 29.081-26.423 54.619-66.924 70.557 38.449 34.207 65.618 76.522 76.476 123.684 27.586-43.061 56.763-66.735 75.684-56.387 27.353 14.91 21.901 95.161-12.213 179.325-26.653 65.897-62.771 114.549-90.315 125.454 0.373 4.007 0.7 8.436 0.7 12.677 0 25.538-6.803 49.119-18.404 68.32 0.233 1.537 0.233 2.982 0.233 4.518 0 11.791-2.658 22.743-7.223 32.205-6.943 171.542-113.058 307.945-284.88 307.945-171.779 0-278.033-136.403-284.976-307.947-4.471-9.6-7.222-20.599-7.222-32.343 0-1.539 0-2.982 0.187-4.522-11.37-19.060-18.175-42.639-18.175-68.272 0-4.289 0.231-8.576 0.513-12.77-27.447-10.811-63.705-59.37-90.314-125.266z"  horiz-adv-x="1024" />

    
    <glyph glyph-name="music-lsit" unicode="&#59032;" d="M714.402 672.576c0.176-0.288 0.24-0.576 0.368-0.864h268c22.768 0 41.2 18.48 41.2 41.2 0 22.704-18.432 41.184-41.2 41.184h-328.256c31.888-27.744 51.472-63.472 59.888-81.52zM982.77 424.576h-476.72c-6.448-26.736-13.2-54.592-20-82.368h496.72c22.768 0 41.2 18.464 41.2 41.184 0.016 22.704-18.432 41.184-41.2 41.184zM982.77 95.056h-565.552c-15.44-32.752-36.768-61.456-64.304-82.384h629.856c22.768 0 41.2 18.496 41.2 41.2 0.016 22.688-18.432 41.184-41.2 41.184zM464.658 550.16c10.448 40.608 33.504 29.2 53.632 12.256 43.504-36.768 43.504-36.768 87.376-84.144 13.984-15.104 31.792-15.888 46.8-5.696 18.032 12.208 35.2 84.448-1.552 167.824-13.008 29.568-57.008 110.736-141.152 112.576-29.184 0.624-43.776-18.672-48.272-33.504-35.984-117.632-131.776-474.048-131.776-474.048-17.28 37.536-75.344 77.952-141.696 84.096-106.4 9.856-185.824-56.256-187.984-152.752-1.92-87.6 78.8-160.72 179.952-162.96 93.056-2.016 152.48 63.008 178.144 143.504 24.016 75.456 86.768 316.128 106.528 392.848z"  horiz-adv-x="1026" />

    
    <glyph glyph-name="down-o" unicode="&#59371;" d="M470.112 258.224l-383.088 380.32c-16.256 16.096-42.592 16.096-58.832 0-16.256-16.096-16.256-42.208 0-58.304l452.192-448.8c0.704-0.816 0.944-1.872 1.728-2.64 1.28-1.264 3.12-1.296 4.512-2.352 4.416-3.536 9.2-6.032 14.4-7.52 2-0.528 3.776-0.896 5.824-1.12 12.464-1.696 25.44 1.504 35.024 10.992 0.816 0.816 1.104 1.904 1.84 2.752l452.080 448.688c16.256 16.096 16.256 42.208 0 58.304-16.24 16.096-42.576 16.096-58.832 0l-383.088-380.32c0 0-22.208-23.584-43.744-23.584-20.304 0-40.016 23.584-40.016 23.584z"  horiz-adv-x="1024" />

    
    <glyph glyph-name="list" unicode="&#58934;" d="M426.16 613.741h485.063c42.383 0 76.683 34.358 76.683 76.714s-34.3 76.697-76.683 76.697h-485.063c-42.364 0-76.706-34.342-76.706-76.697s34.342-76.714 76.706-76.714zM202.945 767.151h-91.994c-42.371 0-76.714-34.342-76.714-76.697s34.342-76.714 76.714-76.714h91.994c42.38 0 76.722 34.358 76.722 76.714 0 42.355-34.342 76.697-76.722 76.697zM911.223 460.332h-485.063c-42.364 0-76.706-34.342-76.706-76.697 0-42.357 34.342-76.714 76.706-76.714h485.063c42.383 0 76.683 34.356 76.683 76.714 0 42.354-34.301 76.697-76.683 76.697zM202.945 460.332h-91.994c-42.371 0-76.714-34.342-76.714-76.697 0-42.357 34.342-76.714 76.714-76.714h91.994c42.38 0 76.722 34.356 76.722 76.714 0 42.354-34.342 76.697-76.722 76.697zM911.223 153.526h-485.063c-42.364 0-76.706-34.355-76.706-76.704 0-42.364 34.342-76.713 76.706-76.713h485.063c42.383 0 76.683 34.349 76.683 76.713 0 42.35-34.301 76.704-76.683 76.704zM202.945 153.526h-91.994c-42.371 0-76.714-34.355-76.714-76.704 0-42.364 34.342-76.713 76.714-76.713h91.994c42.38 0 76.722 34.349 76.722 76.713 0 42.35-34.342 76.704-76.722 76.704z"  horiz-adv-x="1024" />

    
    <glyph glyph-name="tags-o" unicode="&#58982;" d="M943.507 342.125l-533.168 512.724h-287.874l-37.475-42.583v-284.468l512.724-531.462 60.258 0.212 287.236 285.958-1.703 59.619zM158.237 751.367c-16.933 0-30.661 13.728-30.661 30.661s13.728 30.661 30.661 30.661 30.661-13.728 30.661-30.661-13.728-30.661-30.661-30.661zM351.999-62.647l43.437-21.719 117.962 77.931-396.042 435.433zM106.922-24.961l41.947-39.605 123.283 0.212-165.229 450.339z"  horiz-adv-x="1024" />

    
    <glyph glyph-name="xie" unicode="&#58886;" d="M762.3 750.883c-115.172-80.73-265.4-205.896-411.551-432.128-146.154-226.233-217.216-427.872-123.465-370.396 0 0 155.401 299.706 267.508 349.818 112.104 50.112 219.81 62.671 288.085 144.043 0 0 30.55 56.57-102.887 0 0 0-46.674 6.687 20.578 41.155 67.251 34.466 207.292 105.105 226.353 164.62 0 0 29.89 38.192-61.733 0s-108.505-21.238-41.155 20.578c67.35 41.811 137.401 99.709 144.043 144.043 6.64 44.334-90.603 18.995-205.775-61.733zM372.072 740.377c0 22.729-18.427 41.155-41.155 41.155h-246.931c-22.729 0-41.155-18.427-41.155-41.155v-349.818c0-22.731 18.427-41.155 41.155-41.155s41.155 18.425 41.155 41.155v308.663h205.776c22.729 0 41.155 18.425 41.155 41.155zM895.16 225.937c-22.731 0-41.155-18.427-41.155-41.155v-164.62h-329.241c-22.731 0-41.155-18.427-41.155-41.155 0-22.731 18.425-41.157 41.155-41.157h349.818c3.553 0 7 0.45 10.288 1.297 3.289-0.846 6.736-1.297 10.289-1.297 22.729 0 41.155 18.427 41.155 41.157v205.776c0 22.729-18.427 41.155-41.155 41.155zM762.3 750.883c-115.172-80.73-265.4-205.896-411.551-432.128-146.154-226.233-217.216-427.872-123.465-370.396 0 0 155.401 299.706 267.508 349.818 112.104 50.112 219.81 62.671 288.085 144.043 0 0 30.55 56.57-102.887 0 0 0-46.674 6.687 20.578 41.155 67.251 34.466 207.292 105.105 226.353 164.62 0 0 29.89 38.192-61.733 0s-108.505-21.238-41.155 20.578c67.35 41.811 137.401 99.709 144.043 144.043 6.64 44.334-90.603 18.995-205.775-61.733zM372.072 740.377c0 22.729-18.427 41.155-41.155 41.155h-246.931c-22.729 0-41.155-18.427-41.155-41.155v-349.818c0-22.731 18.427-41.155 41.155-41.155s41.155 18.425 41.155 41.155v308.663h205.776c22.729 0 41.155 18.425 41.155 41.155zM895.16 225.937c-22.731 0-41.155-18.427-41.155-41.155v-164.62h-329.241c-22.731 0-41.155-18.427-41.155-41.155 0-22.731 18.425-41.157 41.155-41.157h349.818c3.553 0 7 0.45 10.288 1.297 3.289-0.846 6.736-1.297 10.289-1.297 22.729 0 41.155 18.427 41.155 41.157v205.776c0 22.729-18.427 41.155-41.155 41.155z"  horiz-adv-x="1024" />

    
    <glyph glyph-name="wechat" unicode="&#58890;" d="M816.24 312.079c-24.158 0-43.833 20.086-43.833 45.018 0 24.791 19.676 44.878 43.833 44.878 24.159 0 43.83-20.086 43.83-44.878 0-24.932-19.67-45.018-43.83-45.018M590.784 312.079c-24.163 0-43.833 20.086-43.833 45.018 0 24.791 19.671 44.878 43.833 44.878 24.154 0 43.825-20.086 43.825-44.878 0-24.932-19.671-45.018-43.825-45.018M1017.539 248.132c0 145.438-127.686 264.521-289.519 274.787-7.573 0.42-15.162 0.71-22.747 0.71-172.508 0-312.281-123.364-312.281-275.498 0-22.942 3.236-45.159 9.269-66.384 33.57-120.1 156.484-209.129 303.011-209.129 49.863 0 96.915 10.266 138.631 28.642l70.097-48.578c0 0 18.689-13.246 16.865 12.256l-19.807 76.064c65.327 50.429 106.479 124.509 106.479 207.129M227.097 557.961c-24.174 0-43.831 20.074-43.831 44.867 0 24.927 19.659 45.013 43.831 45.013 24.293 0 43.826-20.086 43.826-45.013 0.001-24.793-19.533-44.867-43.826-44.867M503.121 647.841c24.174 0 43.83-20.086 43.83-45.013 0-24.793-19.657-44.867-43.83-44.867-24.295 0-43.831 20.074-43.831 44.867-0.001 24.927 19.536 45.013 43.831 45.013M705.274 546.572c6.734 0 13.332-0.295 19.946-0.586-25.712 154-176.021 272.244-357.651 272.244-199.613 0-361.449-142.896-361.449-318.956 0-98.157 50.292-185.901 129.242-244.45l-26.698-102.137c0 0-9.122-33.901 25.434-18.672l99.596 68.961c41.439-14.675 86.533-22.801 133.874-22.801 4.073 0 7.998 0.291 11.933 0.291-5.76 21.802-8.846 44.447-8.846 67.664 0 164.529 150.162 298.444 334.618 298.444z"  horiz-adv-x="1024" />

    
    <glyph glyph-name="up" unicode="&#59049;" d="M939.604-75.534c-4.73-17.831-22.739-28.668-40.343-24.433-17.635 4.302-28.586 22.132-23.909 40.359l39.952 159.373v333.161c0 13.581-7.061 22.118-16.045 25.616-3.529 1.542-8.62 2.3-12.905 2.3-4.73 0-9.425-0.756-13.366-2.3-8.571-3.498-14.877-11.282-15.632-24.467v-37.602c0-18.226-15.271-32.971-33.284-32.971s-32.527 14.745-32.527 32.971c0 28.307 0 57.026 0 85.695 0 13.596-7.815 22.118-16.453 26.026-3.925 1.546-8.605 2.3-12.511 2.3-5.485 0-10.182-0.754-13.694-2.3-8.638-3.906-15.289-11.642-16.093-24.464v-87.258c0-18.226-14.877-32.971-33.282-32.971-18.015 0-32.494 14.745-32.494 32.971 0 32.594 0 65.565 0 98.521 0 14.35-7.061 22.887-15.667 25.978-4.694 1.148-9.391 1.953-13.315 1.953-5.107 0-9.376-0.804-13.709-1.953-8.637-3.089-15.649-11.627-15.649-24.42v-100.079c0-18.227-15.286-32.972-33.283-32.972-18.044 0-33.299 14.745-33.299 32.972 0 105.876 0 210.996 0 317.234 0 13.22-6.636 22.118-16.062 26.42-3.938 1.15-7.83 1.906-12.921 1.906-4.337 0-9.425-0.755-12.924-1.906-8.604-4.302-16.485-13.2-16.485-26.42 0-174.905 0-349.794 0-525.11 0-17.833-14.055-32.199-32.873-32.199-17.996 0-33.282 14.367-33.282 32.199v144.646c-0.403 12.825-7.062 20.969-16.044 25.22-3.529 0.789-7.863 1.561-12.955 1.561-4.293 0-9.385-0.771-12.915-1.561-8.621-4.252-15.637-13.186-15.637-26.765v-163.657c0-64.775 1.929-67.486 36.007-111.295l9.393-11.263 72.067-93.461c11.758-14.73 8.21-34.894-5.5-46.142-14.877-10.886-35.616-7.783-46.961 6.602l-72.069 93.051-9.777 12.020c-46.642 59.34-49.769 63.626-49.769 150.489v163.657c0 45.387 25.067 74.103 57.585 86.894 11.748 5.042 24.662 6.996 37.575 6.996 9.426 0 19.615-1.197 28.998-4.302v292.422c0 44.992 25.466 74.102 57.584 86.5 12.511 5.042 25.828 6.995 37.979 6.995 12.922 0 25.469-1.953 37.585-6.995 32.513-12.397 57.98-41.509 57.98-86.5v-128.75c8.982 2.334 18.768 3.892 29.36 3.892 12.544 0 25.073-1.955 37.618-6.994 11.758-5.042 22.692-12.381 32.085-21.724 5.484 3.892 10.574 6.602 16.485 8.538 12.1 5.041 24.663 7.388 38.358 7.388 12.117 0 24.663-2.349 37.584-7.388 21.525-8.538 40.343-25.567 49.735-48.487 11.758 4.285 24.695 6.582 36.454 6.582 12.512 0 25.812-3.086 37.962-7.339 32.133-12.793 57.206-42.298 57.206-86.501v-337.414c0-2.349-0.411-5.039-0.821-6.978l-41.098-164.066zM94.434 621.017v0c-12.915-13.548-34.047-13.548-46.961 0-12.955 12.429-12.955 33.004 0 46.19l108.477 107.782c13.68 12.823 34.853 12.823 46.963 0l109.283-107.782c12.543-13.187 12.543-33.76 0-46.19-12.512-13.548-34.087-13.548-47.002 0l-52.455 51.591v-292.816c0-17.833-14.885-32.971-32.929-32.971-18.005 0-33.283 15.136-33.283 32.971v292.817l-52.093-51.593z"  horiz-adv-x="1024" />

    
    <glyph glyph-name="share-o" unicode="&#59086;" d="M803.271 869.444q80.414 0 137.294-56.88t56.88-137.294-56.88-137.294-137.294-56.88q-42.852 0-80.974 17.639t-65.431 49.12l-246.135-123.266q4.171-20.109 4.171-40.591t-4.171-40.591l246.135-123.266q27.31 31.481 65.431 49.12t80.974 17.639q80.414 0 137.294-56.88t56.88-137.294-56.88-137.294-137.294-56.88-137.294 56.88-56.88 137.294q0 20.482 4.171 40.591l-246.135 123.266q-27.31-31.481-65.431-49.12t-80.974-17.639q-80.414 0-137.294 56.88t-56.88 137.294 56.88 137.294 137.294 56.88q42.852 0 80.974-17.639t65.431-49.12l246.135 123.266q-4.171 20.109-4.171 40.591 0 80.414 56.88 137.294t137.294 56.88zM220.729 481.098q-40.195 0-68.646-28.451t-28.451-68.646 28.451-68.646 68.646-28.451 68.646 28.451 28.451 68.646-28.451 68.646-68.646 28.451zM803.271 189.827q-40.195 0-68.646-28.451t-28.451-68.646 28.451-68.646 68.646-28.451 68.646 28.451 28.451 68.646-28.451 68.646-68.646 28.451zM803.271 772.369q-40.195 0-68.646-28.451t-28.451-68.646 28.451-68.646 68.646-28.451 68.646 28.451 28.451 68.646-28.451 68.646-68.646 28.451z"  horiz-adv-x="1024" />

    
    <glyph glyph-name="back" unicode="&#58919;" d="M43.392 318.464c-18.304 18.272-27.392 40.448-27.392 66.528 0 27.392 9.088 48.912 27.392 64.56l279.776 281.744c19.584 16.944 41.088 25.44 64.56 25.44 26.096 0 47.952-9.488 65.568-28.368 17.6-18.912 26.384-39.472 26.384-61.648 0-24.8-9.12-46.304-27.376-64.56l-121.312-117.408h585.024c26.048 0 47.92-10.464 65.568-31.296 17.584-20.88 26.4-43.728 26.4-68.48 0-26.128-8.832-50.24-26.4-72.4-17.616-22.192-39.488-33.264-65.568-33.264h-585.008l121.312-111.552c18.24-18.256 27.36-39.76 27.36-64.512 0-24.816-9.12-46.336-27.376-64.624-18.304-18.288-39.824-27.376-64.592-27.376-24.8 0-46.32 9.088-64.56 27.376l-279.76 279.84z"  horiz-adv-x="1024" />

    
    <glyph glyph-name="camera" unicode="&#58898;" d="M512 454.331429c-101.668571 0-184.32-82.651429-184.32-184.32C327.68 168.342857 410.331429 85.691429 512 85.691429c101.668571 0 184.32 82.651429 184.32 184.32C696.32 371.68 613.668571 454.331429 512 454.331429zM921.6 556.731429l-122.88 0c-16.822857 0-35.108571 23.405714-40.228571 39.497143l-31.451429 95.085714c-5.12 16.091429-13.165714 29.257143-29.988571 29.257143L327.68 720.571429c-16.822857 0-24.868571-13.165714-29.988571-29.257143l-31.451429-95.085714c-5.12-16.091429-23.405714-39.497143-40.228571-39.497143L102.4 556.731429c-56.32 0-102.4-35.84-102.4-92.16l0-460.8c0-56.32 46.08-102.4 102.4-102.4l819.2 0c56.32 0 102.4 46.08 102.4 102.4l0 460.8C1024 520.891429 977.92 556.731429 921.6 556.731429zM512 3.771429c-147.017143 0-266.24 119.222857-266.24 266.24C245.76 417.028571 364.982857 536.251429 512 536.251429s266.24-119.222857 266.24-266.24C778.24 122.994286 659.017143 3.771429 512 3.771429z"  horiz-adv-x="1024" />

    
    <glyph glyph-name="github" unicode="&#59189;" d="M33.219 371.531c0-209.063 133.969-386.813 320.719-452.063 25.125-6.375 21.281 11.625 21.281 23.813v82.969c-145.219-17.063-151.031 79.125-160.875 95.156-19.781 33.656-66.281 42.187-52.406 58.219 33.094 17.063 66.75-4.313 105.844-61.969 28.313-41.813 83.25-34.781 111.281-27.75 6.094 25.125 19.219 47.531 37.125 65.063-150.281 26.719-213.094 118.594-213.094 227.813 0 52.875 17.438 101.625 51.75 140.906-21.75 64.875 2.062 120.187 5.25 128.438 62.156 5.625 126.656-44.438 131.719-48.375 35.344 9.469 75.656 14.625 120.75 14.625 45.375 0 85.875-5.25 121.406-14.813 12.094 9.188 72 52.125 129.75 46.875 3.094-8.25 26.344-62.344 5.906-126.281 34.688-39.375 52.313-88.406 52.313-141.563 0-109.406-63.094-201.375-213.937-227.906 25.219-24.844 40.781-59.344 40.781-97.5v-120.375c0.844-9.563 0-19.219 16.125-19.219 189.469 63.844 325.875 242.906 325.875 453.844 0 264.469-214.406 478.781-478.781 478.781-264.469 0.094-478.781-214.219-478.781-478.688z"  horiz-adv-x="1024" />

    
    <glyph glyph-name="tags" unicode="&#58999;" d="M218.241 854.27v-916.883c0-22.205 6.387-35.875 16.714-44.949l288.914 288.911 288.914-288.914c10.327 9.074 16.714 22.743 16.714 44.949v916.883h-611.255z"  horiz-adv-x="1024" />

    
    <glyph glyph-name="location" unicode="&#59009;" d="M511.705799 811.939625c-211.408921 0-383.76336-180.101891-383.76336-393.397788 0-223.400023 205.476815-469.857181 341.033164-604.26231 0.543376-0.639566 23.087834-25.710568 50.909483-25.710568 0.063445 0 2.365884 0 2.462075 0 27.788903 0 50.205449 25.071002 50.78157 25.710568 114.897843 144.605446 322.341452 390.839523 322.341452 604.26231C895.46916 631.837734 755.156484 811.939625 511.705799 811.939625zM511.705799 172.333342c-141.29812 0-255.842922 114.544803-255.842922 255.842922s114.544803 255.842922 255.842922 255.842922c141.29812 0 255.842922-114.544803 255.842922-255.842922S653.003919 172.333342 511.705799 172.333342z"  horiz-adv-x="1024" />

    
    <glyph glyph-name="noticenew" unicode="&#59024;" d="M1024 457.956c0 62.578-51.2 113.778-113.778 113.778v250.311c0 22.756-17.067 39.822-39.822 39.822l-415.289-176.356h-221.867c-119.467 0-233.244-91.022-233.244-233.244s113.778-221.867 233.244-221.867l96.711-250.311c0-22.756 17.067-34.133 39.822-34.133h56.889c22.756 0 39.822 17.067 39.822 39.822l-56.889 244.622h45.511l415.289-170.667c22.756 0 39.822 17.067 39.822 39.822v244.622c62.578 0 113.778 51.2 113.778 113.778z"  horiz-adv-x="1024" />

    
    <glyph glyph-name="login" unicode="&#58994;" d="M795.453 489.379v175.83c0 106.708-127.389 193.498-283.924 193.498s-283.864-86.764-283.864-193.496v-175.83c-50.306-19.764-85.211-60.801-85.211-108.699v-349.033c0-67.056 67.822-121.417 151.446-121.417h435.285c83.599 0 151.446 54.362 151.446 121.417v349.031c-0.021 47.899-34.926 88.935-85.178 108.699zM511.531 737.295c71.803 0 132.476-33.019 132.476-72.084v-163.116h-264.921v163.116c-0.004 39.069 60.668 72.084 132.444 72.084z"  horiz-adv-x="1024" />

    
    <glyph glyph-name="trend" unicode="&#58897;" d="M909.3764 37.841581C886.573532-49.077123 844.079068-122.95999 763.185993-171.361933 719.667566-197.354839 675.04641-205.861609 627.825963-211.454022 592.73554-215.62864 574.540505-195.582596 584.307537-160.96477 590.687614-138.319435 601.596758-116.934362 611.403173-95.43114 638.695724-35.608072 654.6853 77.421688 588.364006 144.018665 582.535293 149.88676 571.941215 156.54252 565.915586 154.730893 560.008108 152.958649 553.312965 140.710477 553.431115 133.188287 554.967059 31.028288 511.921231-55.969182 456.312164-134.105434 418.464917-187.272742 330.994849-235.438385 251.16512-185.421732 162.19849-129.694516 111.039724-56.481163 101.11516 52.216445 89.694034 177.336845 114.93866 285.561855 208.276824 371.850428 213.554172 376.69456 218.516454 383.114021 224.817764 385.319479 236.711488 389.494098 249.471642 391.148192 261.877348 393.826249 263.570825 382.286974 267.902976 370.353867 266.406415 359.28719 263.728358 339.871276 257.978412 320.809812 252.582915 301.866497 240.216592 258.544986 258.135945 214.90841 292.005489 207.149921 334.027355 197.540422 368.802713 222.903198 375.655388 270.635626 378.254679 288.751894 377.742697 308.049658 374.946491 326.205309 363.604131 399.02483 347.457023 471.21422 339.422852 544.348807 328.592474 642.924935 369.550993 724.014927 433.54868 794.27454 439.456158 800.772767 449.10504 803.805273 457.336127 807.822358 473.916451 815.935296 482.777669 813.099706 485.849558 791.596483 492.229635 746.345196 497.940198 700.503161 510.345903 656.787819 521.29443 618.310441 537.914137 580.620726 557.605733 545.884751 579.77847 506.737859 606.243974 469.599509 634.678639 434.902918 649.289803 417.062332 672.250203 392.684136 696.431483 409.382609 719.903865 425.647868 712.578592 456.878738 703.481074 481.650766 694.54109 505.871429 679.61486 528.004782 672.407736 552.619277 668.311884 566.560927 674.376896 583.692615 675.873457 599.367125 690.130172 596.492152 707.419394 597.909947 718.171005 590.033309 784.610449 541.355684 844.827349 486.337366 878.303062 406.980235 917.961935 313.051323 921.860871 294.147391 925.523508 186.119297 920.600609 136.575242 921.821488 85.33771 909.3764 37.841581Z"  horiz-adv-x="1024" />

    
    <glyph glyph-name="download" unicode="&#60682;" d="M966.570667 469.333333c-0.910222 21.390222-2.844444 43.292444-5.12 65.649778-15.872 154.993778-139.52 282.140444-293.859556 301.397333-166.513778 20.792889-312.519111-79.587556-363.377778-224.824889-6.4 0.540444-12.8 0.995556-19.342222 0.995556-124.871111 0-228.096-101.888-228.096-227.015111l0-56.632889c0-30.976 26.993778-56.206222 57.912889-56.206222l1.137778 0c30.890667 0 54.471111 26.567111 54.471111 57.514667l0 44.686222c-6.542222 67.527111 48.469333 124.330667 114.545778 124.330667 3.299556 0 6.542222-0.284444 9.784889-0.568889l43.776 0.568889c25.685333-2.190222 49.464889 9.045333 57.969778 33.422222l12.288 35.072c29.838222 85.248 105.073778 149.219556 194.901333 157.155556 139.064889 12.316444 259.242667-104.903111 249.969778-243.655111l-0.199111-11.918222 0-145.777778 0.568889 0c1.649778-29.610667 27.676444-53.333333 57.628444-53.333333l1.109333 0c29.496889 0 52.053333 24.234667 54.129778 53.333333l0.398222 0 0 145.777778-0.625778 0zM641.792 195.896889l-73.216-74.894222 0 206.677333c0 31.089778-25.088 56.32-56.035556 56.32l-1.109333 0c-30.947556 0-56.035556-25.201778-56.035556-56.32l0-198.058667-7.367111 1.166222-63.630222 63.374222c-20.081778 19.968-52.195556 24.832-75.178667 8.334222-29.184-20.963556-31.601778-61.696-7.253333-85.959111l171.918222-171.121778c10.609778-10.581333 25.002667-16.554667 40.078222-16.554667s29.44 5.973333 40.078222 16.554667l167.907556 170.666667c22.129778 22.044444 22.129778 57.770667 0 79.815111-22.158222 22.072889-58.055111 22.072889-80.213333 0z"  horiz-adv-x="1024" />

    
    <glyph glyph-name="sure-location" unicode="&#58895;" d="M511.962 864c84.423 0 163.68-21.772 232.589-60.038-2.918-2.515-5.76-5.165-8.486-7.891-29.395-29.337-45.734-68.889-45.734-110.419 0-22.886 7.776-49.209 20.179-75.802-8.371 9.446-17.568 21.849-23.616 28.781-10.272 11.635-19.872-16.454-28.148-24.019-8.217-7.546-19.162-27.398-33.581-27.398-14.4 0-22.617 48.672-22.617 48.672l11.616-11.674c0 0 9.6 17.817 8.256 26.746-1.325 8.909 6.144 4.109 13.689 5.472 7.565 1.402 15.802 26.765 19.219 38.4 1.939 6.509 17.203 19.526 31.028 29.299-52.685 27.398-112.627 42.912-176.122 42.912-15.994 0-31.737-1.017-47.251-2.899 0.557-11.021-0.48-26.343-0.096-44.333 0.806-38.054-15.859-21.408-34.099-32.486-18.24-11.117-26.112-28.569-43.603-33.312-8.026-2.189-21.946-15.206-35.539-29.626-5.568-4.147-10.848-8.755-15.859-13.728-15.609-15.591-27.226-34.329-34.234-54.701-5.414-10.311-11.846-19.661-19.776-21.657-15.897-3.955-4.762 32.506-40.474 38.823-35.635 6.374-40.435-46.791-45.158-68.179-4.8-21.427 30.912-2.381 47.558 3.149 16.646 5.568 3.168-18.202 3.936-26.151 0.864-7.929 7.968-30.125 4.8-44.409-1.939-8.486 8.832-17.76 17.875-23.866 11.943 12.903 26.515 24.019 42.297 25.363 23.251-49.459 63.686-99.591 96.211-126.009l27.283-22.137 28.089 21.101c10.080 7.603 21.101 18.106 32.237 30.528 2.304-1.267 4.128-2.4 5.376-3.341 10.272-7.546 47.309-14.4 39.763-29.491-7.565-15.052-13.037-21.216-26.765-47.309-13.689-26.016-47.981-103.526-81.6-130.252-33.562-26.746-36.979-31.546-47.309-53.491-10.272-21.926-8.217-38.381-17.146-37.037-8.889 1.383-21.235 13.056-21.235 13.056s-15.072 45.235-15.072 62.4c0 17.126-16.454 63.053-15.744 76.089 0.672 13.037-2.803 48.672-17.875 60.346-15.072 11.616-41.108 42.471-43.219 58.252-2.016 15.763-15.744 62.381 1.44 85.689 1.536 2.131 3.168 4.301 4.896 6.451-7.507 4.531-17.337 10.349-25.344 14.611-15.091 7.891-15.859 19.008-17.491 26.937-1.536 7.929-19.776 15.84-37.248 26.957-17.434 11.097-11.059 29.337-12.691 42.816-0.806 6.893-2.438 23.405 5.011 48.308-28.339-53.434-44.429-114.355-44.429-179.059 0-105.6 42.835-201.254 112.051-270.451 69.254-69.235 164.871-112.071 270.489-112.071s201.216 42.835 270.489 112.071c69.197 69.197 112.051 164.851 112.051 270.451 0 31.008-3.706 61.152-10.675 89.991 24.057 20.621 51.821 54.144 74.631 90.394 22.675-55.795 35.212-116.832 35.212-180.826 0-132.557-53.76-252.557-140.583-339.437-86.88-86.842-206.899-140.563-339.456-140.563-132.499 0-252.518 53.722-339.36 140.563-86.861 86.88-140.602 206.88-140.602 339.437 0 132.518 53.741 252.518 140.602 339.398 86.842 86.861 206.861 140.602 339.36 140.602v0zM846.483 796.857c-30.701 0-58.503-12.442-78.643-32.583-20.122-20.103-32.544-47.923-32.544-78.624 0-51.245 63.303-143.405 111.129-182.227 40.051 30.106 111.226 131.059 111.226 182.227 0 30.701-12.403 58.522-32.563 78.624-20.064 20.141-47.923 32.583-78.605 32.583v0zM881.734 720.883c-9.043 9.024-21.466 14.631-35.251 14.631-13.805 0-26.227-5.606-35.212-14.631-9.043-9.005-14.611-21.466-14.611-35.232 0-13.747 5.568-26.227 14.611-35.251 8.986-9.005 21.408-14.592 35.212-14.592 13.786 0 26.208 5.606 35.251 14.592 9.024 9.024 14.554 21.504 14.554 35.251 0 13.766-5.529 26.228-14.554 35.232v0zM435.181 607.68c-27.188 0-51.821-11.021-69.638-28.838-17.837-17.817-28.819-42.432-28.819-69.6 0-45.369 56.045-126.931 98.4-161.318 35.443 26.649 98.457 116.026 98.457 161.318 0 27.188-11.002 51.802-28.819 69.6-17.817 17.817-42.451 28.838-69.581 28.838v0zM466.343 540.423c-7.968 8.006-19.008 12.922-31.162 12.922-12.211 0-23.213-4.915-31.219-12.922-7.987-7.968-12.922-18.989-12.922-31.2s4.934-23.213 12.922-31.2c8.006-8.006 19.008-12.922 31.219-12.922 12.154 0 23.194 4.915 31.162 12.922 7.968 7.987 12.922 19.008 12.922 31.2s-4.954 23.232-12.922 31.2v0zM581.254 454.388c0 0 23.002-45.504 35.366-60.576 12.346-15.111 96.038 5.472 108.403 2.746 12.346-2.746 2.304-25.689 16.416-54.892 14.151-29.165 2.784-181.094 23.328-187.968 20.602-6.854 71.386 79.584 80.986 98.803s28.819 176.986 28.819 204.423c0 2.803-0.826 6.125-2.208 9.734l-26.976-20.275-27.283 22.157c-26.611 21.6-58.349 58.003-83.539 97.748-2.246 0.365-4.282 0.768-5.914 1.209-15.072 4.128-29.472 19.2-35.616 20.583s-19.219-2.765-32.237-1.363c-13.017 1.363-28.089-8.237-35.635-13.037-7.546-4.781-10.983-19.2-16.454-27.456-5.472-8.217-9.6-12.979-21.965-24.653-12.346-11.654-4.071-21.946-2.054-37.728 2.054-15.783-3.437-29.453-3.437-29.453z"  horiz-adv-x="1024" />

    
    <glyph glyph-name="games" unicode="&#58936;" d="M833.6470471111111 522.163237925926h-526.558701037037c-157.0291105185185 0-284.3327905185185-139.4763851851852-284.3327905185185-311.5642121481481 0-172.0453499259259 127.30489362962962-311.5241623703703 284.3327905185185-311.5241623703703h526.5368557037037c157.0485285925926 0 284.3546358518518 139.4763851851852 284.3546358518518 311.5241623703703 0 172.0890405925926-127.30489362962962 311.5642121481481-284.3327905185185 311.5642121481481v0zM401.86675199999996 169.0783288888888h-63.19248118518519v-62.31259970370371c0-22.93638637037037-18.847668148148145-41.54254222222222-42.128725333333335-41.54254222222222-23.238580148148145 0-42.106880000000004 18.604942222222224-42.106880000000004 41.54254222222222v62.31259970370371h-63.19248118518519c-23.25921185185185 0-42.106880000000004 18.584310518518517-42.106880000000004 41.52069688888889s18.847668148148145 41.54254222222222 42.106880000000004 41.54254222222222h63.19248118518519v62.31259970370371c0 22.93638637037037 18.86829985185185 41.52069688888889 42.106880000000004 41.52069688888889 23.281057185185183 0 42.128725333333335-18.584310518518517 42.128725333333335-41.52069688888889v-62.31259970370371h63.19248118518519c23.25921185185185 0 42.128725333333335-18.604942222222224 42.128725333333335-41.54254222222222 0-22.93638637037037-18.86829985185185-41.52069688888889-42.128725333333335-41.52069688888889v0zM738.8698548148149 169.0783288888888c-23.25921185185185 0-42.128725333333335 18.584310518518517-42.128725333333335 41.52069688888889s18.86829985185185 41.54254222222222 42.128725333333335 41.54254222222222c23.25921185185185 0 42.106880000000004-18.604942222222224 42.106880000000004-41.54254222222222 0-22.93638637037037-18.847668148148145-41.52069688888889-42.106880000000004-41.52069688888889v0zM844.169216 65.22318696296304c-23.25921185185185 0-42.106880000000004 18.604942222222224-42.106880000000004 41.54254222222222 0 22.93638637037037 18.847668148148145 41.52069688888889 42.106880000000004 41.52069688888889 23.25921185185185 0 42.128725333333335-18.584310518518517 42.128725333333335-41.52069688888889 0-22.93638637037037-18.86829985185185-41.54254222222222-42.128725333333335-41.54254222222222v0zM844.169216 272.91162548148156c-23.25921185185185 0-42.106880000000004 18.604942222222224-42.106880000000004 41.54254222222222 0 22.93638637037037 18.847668148148145 41.52069688888889 42.106880000000004 41.52069688888889 23.25921185185185 0 42.128725333333335-18.584310518518517 42.128725333333335-41.52069688888889 0-22.93638637037037-18.86829985185185-41.54254222222222-42.128725333333335-41.54254222222222v0zM949.4892088888889 169.0783288888888c-23.25921185185185 0-42.128725333333335 18.584310518518517-42.128725333333335 41.52069688888889s18.86829985185185 41.54254222222222 42.128725333333335 41.54254222222222c23.25921185185185 0 42.106880000000004-18.604942222222224 42.106880000000004-41.54254222222222 0-22.93638637037037-18.847668148148145-41.52069688888889-42.106880000000004-41.52069688888889v0zM865.2548171851852 833.6874002962963v62.31259970370371h-84.27686874074071v-46.678622814814815c0-168.35470222222222-252.72744770370372 22.090486518518517-252.72744770370372-202.57298962962963v-62.29196799999999h84.23439170370371c-16.630366814814813 229.5531899259259 252.76749748148146-21.533430518518514 252.76749748148146 249.2309807407407v0z"  horiz-adv-x="1132" />

    
    <glyph glyph-name="share" unicode="&#59195;" d="M785.067 220.16c45.147 0 83.741-15.655 115.78-46.967s48.060-70.269 48.060-116.873c0-45.147-16.020-83.741-48.060-115.78-32.039-32.039-70.634-48.060-115.78-48.060-45.147 0-83.741 16.020-115.78 48.060-32.039 32.039-48.060 70.634-48.060 115.78 0 4.369 0.364 9.467 1.092 15.292 0.729 5.825 1.092 10.194 1.092 13.107 0 0-283.989 170.394-283.989 170.394-30.583-23.301-64.080-34.953-100.489-34.953-45.147 0-83.741 16.020-115.78 48.060-32.039 32.039-48.060 70.634-48.060 115.78 0 45.147 16.020 83.741 48.060 115.78 32.039 32.039 70.634 48.060 115.78 48.060 39.322 0 72.818-10.923 100.489-32.768 0 0 283.989 170.394 283.989 170.394 0 2.913-0.364 7.282-1.092 13.107-0.729 5.825-1.092 10.194-1.092 13.107 0 45.147 16.020 83.741 48.060 115.78 32.039 32.039 70.634 48.060 115.78 48.060 45.147 0 83.741-15.655 115.78-46.967 32.039-31.312 48.060-70.269 48.060-116.873 0-45.147-16.020-83.741-48.060-115.78-32.039-32.039-70.634-48.060-115.78-48.060-37.866 0-70.634 11.651-98.304 34.953 0 0-286.174-170.394-286.174-170.394 1.456-5.825 2.185-15.292 2.185-28.399 0-11.651-0.729-20.389-2.185-26.214 0 0 286.174-170.394 286.174-170.394 26.214 21.845 58.982 32.768 98.304 32.768 0 0 0 0 0 0z"  horiz-adv-x="1024" />

    
    <glyph glyph-name="search" unicode="&#58993;" d="M955.738 45.396c-15.858 16.94-127.782 129.458-165.848 167.705 45.188 66.317 71.646 146.397 71.646 232.702 0 190.205-128.504 350.071-303.388 398.669-139.271 43.57-297.101 9.754-407.346-101.87-90.5-91.573-129.161-215.644-116.413-335.107 19.393-210.735 196.611-375.865 412.615-375.865 84.033 0 162.075 25.138 227.374 68.111l175.364-168.482c39.265-32.142 84.33-37.407 119.647 2.215 30.221 33.818 26.693 65.658-13.65 111.921v0zM447.122 177.488c-151.481 0-274.297 122.754-274.297 274.058 0 151.363 122.815 274.118 274.297 274.118 151.487 0 274.301-122.696 274.301-274.118 0.060-151.304-122.754-274.058-274.301-274.058v0zM447.122 177.488z"  horiz-adv-x="1024" />

    
    <glyph glyph-name="qzone" unicode="&#59008;" d="M793.761 265.962c0 0 11.827-33.425 26.743-79.478-88.916 8.251-221.357 22.713-339.215 44.17-4.204 18.195 323.497 242.152 316.885 255.201-290.264 49.701-504.853 0-504.853 0 0 0 351.46-48.653 351.46-48.653 0 0-331.87-221.863-336.319-242.936 147.967-26.359 383.559-24.143 516.053-20.201 31.662-98.982 73.216-243.896 49.072-255.252-64.337-30.302-335.202 175.216-335.202 175.216 0 0-261.306-192.364-301.673-172.616-65.628 32.151 24.528 344.553 24.528 344.553 0 0-242.134 192.242-228.701 240.634 13.554 48.357 369.010 65.156 369.010 65.156 0 0 99.662 280.321 150.374 291.904 50.747 11.584 158.364-273.953 158.364-273.953 0 0 336.022-37.472 358.788-67.355 22.836-29.813-275.314-256.387-275.314-256.387zM923.341 177.971c0 0-38.85-2.128-98.825-3.908-1.36 4.239-2.704 8.356-4.012 12.421 61.964-5.757 102.837-8.513 102.837-8.513z"  horiz-adv-x="1117" />

    
    <glyph glyph-name="pc6" unicode="&#58922;" d="M272 714h-180c-33.18 0-60-26.88-60-60v-660c0-33.15 26.85-60 60-60h180c33.15 0 60 26.82 60 60v660c0 33.12-26.85 60-60 60zM122 114c-16.59 0-30 13.41-30 30s13.41 30 30 30c16.59 0 30-13.41 30-30s-13.41-30-30-30zM272 474h-180v60h180v-60zM272 594h-180v60h180v-60zM662 54v60h-180v-60c-33.15 0-60-26.85-60-60h300c0 33.18-26.82 60-60 60zM932 834h-720c-33.15 0-60-26.88-60-60h780v-480h-540v-120h540c33.15 0 60 26.82 60 60v540c0 33.12-26.85 60-60 60zM572 204c-16.59 0-30 13.41-30 30 0 16.56 13.41 30 30 30s30-13.41 30-30c0-16.59-13.41-30-30-30z"  horiz-adv-x="1024" />

    
    <glyph glyph-name="smiling" unicode="&#59059;" d="M874.22 746.173c-199.742 199.761-524.717 199.761-724.42 0.048-199.742-199.713-199.722-524.698 0.019-724.449 199.684-199.703 524.659-199.703 724.382 0.039 199.722 199.713 199.713 524.679 0.019 724.362zM818.327 77.665c-168.904-168.904-443.741-168.923-612.655-0.019-168.942 168.933-168.923 443.799 0 612.703 168.904 168.894 443.732 168.913 612.674-0.019 168.904-168.904 168.884-443.77-0.019-612.664zM320.933 522.632c0 33.059 26.812 59.87 59.87 59.87 33.049 0 59.861-26.802 59.861-59.87 0-33.078-26.812-59.88-59.861-59.88-33.059 0-59.87 26.802-59.87 59.88zM592.402 522.632c0 33.059 26.831 59.87 59.89 59.87 33.049 0 59.861-26.802 59.861-59.87 0-33.078-26.802-59.88-59.861-59.88s-59.89 26.802-59.89 59.88zM733.943 277.426c-37.104-85.804-123.998-141.242-221.359-141.242-99.456 0-186.862 55.719-222.682 141.957-6.141 14.762 0.859 31.717 15.641 37.857 3.63 1.497 7.396 2.211 11.103 2.211 11.354 0 22.129-6.71 26.754-17.862 26.812-64.553 93.219-106.243 169.184-106.243 74.247 0 140.267 41.719 168.189 106.311 6.353 14.685 23.404 21.453 38.079 15.091s21.444-23.404 15.091-38.079z"  horiz-adv-x="1024" />

    
    <glyph glyph-name="home" unicode="&#58935;" d="M586.020 895.904l-586.020-587.522 106.823-103.26 110.383 103.26 74.774-436.287 217.206 0.005v218.143h142.43v-218.143h224.324l74.778 436.28 103.26-103.259 115.933 103.259-583.89 587.524zM588.008 412.709c-62.043 0-112.345 50.304-112.345 112.352 0 62.043 50.302 112.345 112.345 112.345 62.048 0 112.349-50.302 112.349-112.345 0.001-62.046-50.302-112.352-112.349-112.352z"  horiz-adv-x="1170" />

    
    <glyph glyph-name="msg" unicode="&#59031;" d="M782.938 863.806h-338.904c-1.215 0.126-2.445 0.194-3.689 0.194h-207.097c-2.547 0-5.036-0.272-7.446-0.785-107.91-8.263-193.304-103.441-193.304-219.268v-356.953c0-103.291 69.032-192.368 163.244-214.419l53.168-123.459c11.725-27.219 36.646-44.12 65.002-44.12 28.355 0 53.274 16.901 65.002 44.12l50.831 118.034h353.196c115.009 0 208.563 98.623 208.563 219.845v356.953c0 121.238-93.556 219.86-208.564 219.86zM290.614 401.563c-27.347 0-49.517 23.37-49.517 52.198s22.169 52.198 49.517 52.198 49.517-23.37 49.517-52.198c0-28.828-22.169-52.198-49.517-52.198zM511.998 401.563c-27.347 0-49.517 23.37-49.517 52.198s22.169 52.198 49.517 52.198c27.347 0 49.517-23.37 49.517-52.198 0-28.828-22.169-52.198-49.517-52.198zM727.669 401.563c-27.347 0-49.517 23.37-49.517 52.198s22.169 52.198 49.517 52.198 49.517-23.37 49.517-52.198c0-28.828-22.169-52.198-49.517-52.198z"  horiz-adv-x="1024" />

    
    <glyph glyph-name="comment" unicode="&#58885;" d="M735.638965 831.527616 96.686575 831.527616c-35.30611 0-63.933101-28.594245-63.933101-63.933101l0-447.527616c0-141.226488 114.441449-255.730359 255.605515-255.730359l439.350376 0 263.534092-127.865179L991.243457 575.797257C991.24448 717.023746 876.803032 831.527616 735.638965 831.527616zM256.424672 383.998977c-35.025725 0-63.432705 28.65769-63.432705 63.933101 0 35.337833 28.408003 63.933101 63.432705 63.933101 35.057447 0 63.433728-28.594245 63.433728-63.933101C319.8584 412.656667 291.482119 383.998977 256.424672 383.998977zM511.655657 383.998977c-35.30611 0-63.932078 28.65769-63.932078 63.933101 0 35.337833 28.625968 63.933101 63.932078 63.933101 35.307134 0 63.933101-28.594245 63.933101-63.933101C575.587736 412.656667 546.962791 383.998977 511.655657 383.998977zM767.386016 383.998977c-35.30611 0-63.933101 28.65769-63.933101 63.933101 0 35.337833 28.626991 63.933101 63.933101 63.933101 35.307134 0 63.933101-28.594245 63.933101-63.933101C831.319118 412.656667 802.69315 383.998977 767.386016 383.998977z"  horiz-adv-x="1024" />

    
    <glyph glyph-name="archives" unicode="&#58946;" d="M308.183 840.731h-203.606c-24.988 0-45.246-20.259-45.246-45.246v-769.179c0-24.987 20.259-45.248 45.246-45.248h203.606c24.988 0 45.246 20.26 45.246 45.248v769.179c-0.001 24.988-20.26 45.246-45.246 45.246zM206.38 71.55c-43.722 0-79.179 35.46-79.179 79.183 0 43.719 35.458 79.179 79.179 79.179s79.179-35.46 79.179-79.179c0-43.722-35.458-79.183-79.179-79.183zM308.183 388.271c0-24.988-20.259-45.246-45.245-45.246h-113.116c-24.988 0-45.245 20.259-45.245 45.246v361.967c0 24.988 20.259 45.245 45.245 45.245h113.116c24.988 0 45.245-20.259 45.245-45.245v-361.967zM149.822 704.993h113.116v45.245h-113.116v-45.245zM149.822 524.009h113.116v45.245h-113.116v-45.245zM149.822 614.501h113.116v45.245h-113.116v-45.245zM466.541 614.501h113.116v45.245h-113.116v-45.245zM783.263 704.993h113.116v45.245h-113.116v-45.245zM783.263 614.501h113.116v45.245h-113.116v-45.245zM941.623 840.731h-203.605c-24.988 0-45.246-20.259-45.246-45.246v-769.179c0-24.987 20.259-45.248 45.246-45.248h203.605c24.988 0 45.245 20.26 45.245 45.248v769.179c0 24.988-20.258 45.246-45.245 45.246zM839.82 71.55c-43.721 0-79.179 35.46-79.179 79.183 0 43.719 35.459 79.179 79.179 79.179 43.722 0 79.182-35.46 79.182-79.179 0-43.722-35.459-79.183-79.182-79.183zM941.623 388.271c0-24.988-20.259-45.246-45.246-45.246h-113.116c-24.987 0-45.245 20.259-45.245 45.246v361.967c0 24.988 20.259 45.245 45.245 45.245h113.116c24.987 0 45.246-20.259 45.246-45.245v-361.967zM466.541 524.009h113.116v45.245h-113.116v-45.245zM466.541 704.993h113.116v45.245h-113.116v-45.245zM624.902 840.731h-203.605c-24.988 0-45.246-20.259-45.246-45.246v-769.179c0-24.987 20.259-45.248 45.246-45.248h203.605c24.987 0 45.245 20.26 45.245 45.248v769.179c0 24.988-20.259 45.246-45.245 45.246zM523.1 71.55c-43.724 0-79.182 35.46-79.182 79.183 0 43.719 35.458 79.179 79.182 79.179 43.721 0 79.179-35.46 79.179-79.179 0-43.722-35.459-79.183-79.179-79.183zM624.902 388.271c0-24.988-20.259-45.246-45.246-45.246h-113.116c-24.988 0-45.245 20.259-45.245 45.246v361.967c0 24.988 20.258 45.245 45.245 45.245h113.116c24.987 0 45.246-20.259 45.246-45.245v-361.967zM783.263 524.009h113.116v45.245h-113.116v-45.245z"  horiz-adv-x="1024" />

    
    <glyph glyph-name="weibo" unicode="&#59120;" d="M466.642-55.044c-184.318-8.64-333.308 83.788-333.308 206.782 0 123.186 148.99 221.95 333.308 230.437 184.472 8.525 333.77-67.507 333.77-190.347 0-122.994-149.298-238.462-333.77-246.871M859.163 344.62c-43.776 8.486-22.54 32.025-22.54 32.025s42.893 70.656-8.448 121.957c-63.59 63.628-218.186-8.064-218.186-8.064-58.982-18.355-43.353 8.332-34.982 53.721 0 53.491-18.355 144.037-175.601 90.547-157.055-53.759-291.952-242.071-291.952-242.071-86.361-115.314-113.855-280.010-0.115-387.375 109.093-102.95 280.97-129.292 425.429-121.381 136.433 7.488 290.34 53.414 385.225 156.939 18.931 20.659 35.251 43.814 47.193 69.234 75.993 161.701-62.093 225.675-106.021 234.468zM492.416 150.414c-11.751-8.755-26.15-7.488-32.332 2.995-6.489 10.252-4.071 26.688 7.795 35.328 13.748 10.176 28.032 7.257 34.214-2.995 6.22-10.483 1.766-26.265-9.677-35.328M383.13 57.334c-34.598-4.032-62.514 15.897-62.514 44.889 0 28.8 24.806 59.020 59.405 62.63 39.743 3.763 65.663-19.123 65.663-48.076 0-28.838-28.070-55.488-62.553-59.442M429.863 301.094c-91.507-10.714-157.938-71.731-164.235-164.812-1.882-27.994 2.304-58.751 17.856-83.212 38.285-60.172 120.997-66.278 184.395-53.683 66.393 13.209 133.285 60.288 147.186 129.983 5.683 28.377 1.421 57.676-9.446 84.325-29.068 71.308-103.794 95.73-175.755 87.398zM1127.487 441.92c0.883 3.417 1.421 6.951 1.459 10.675 2.496 16.397 4.032 33.023 4.032 49.651 0 182.975-148.837 331.85-331.811 331.85-25.343 0-45.849-20.582-45.849-45.888 0-25.343 20.505-45.888 45.849-45.888 132.402 0 240.074-107.711 240.074-240.074 0-14.745-1.344-29.529-4.032-43.891l0.537-0.115c-0.154-1.728-0.499-3.417-0.499-5.223 0-25.305 20.543-45.849 45.888-45.849 21.388 0 39.168 14.669 44.274 34.445h0.038c0 0.115 0 0.231 0.038 0.308zM983.854 485.020c0.537 5.722 1.114 11.366 1.114 17.242 0 101.336-82.444 183.781-183.781 183.781-21.12 0-38.246-17.126-38.246-38.246 0-21.12 17.126-38.246 38.246-38.246 59.174 0 107.327-48.114 107.327-107.288 0-4.685-0.307-9.293-0.883-13.823l0.883-0.115c-0.154-1.497-0.883-2.842-0.883-4.454 0-21.12 17.126-38.208 38.246-38.208 19.315 0 34.598 14.554 37.209 33.177l0.384-0.077c0.115 0.96 0.038 1.997 0.192 2.957 0 0.729 0.423 1.383 0.423 2.151 0 0.423-0.231 0.768-0.231 1.152z"  horiz-adv-x="1188" />

    
    <glyph glyph-name="link-o" unicode="&#58923;" d="M444.74 267.96c-12.48 0-24.96 4.74-34.5 14.28-89.16 89.16-89.16 234.3 0 323.52l180 180c43.2 43.2 100.68 67.020 161.76 67.020s118.56-23.82 161.76-67.020c89.16-89.22 89.16-234.3 0-323.52l-82.26-82.26c-19.020-19.020-49.92-19.020-68.94 0s-19.020 49.92 0 68.94l82.26 82.26c51.18 51.18 51.18 134.46 0 185.64-24.78 24.78-57.78 38.46-92.82 38.46s-68.040-13.68-92.82-38.46l-180-180c-51.18-51.18-51.18-134.46 0-185.64 19.020-19.020 19.020-49.92 0-68.94-9.54-9.54-22.020-14.28-34.5-14.28zM272-84.78c-61.080 0-118.56 23.82-161.76 67.020-89.16 89.16-89.16 234.3 0 323.52l82.26 82.26c19.020 19.020 49.92 19.020 68.94 0s19.020-49.92 0-68.94l-82.26-82.26c-51.18-51.18-51.18-134.46 0-185.64 24.78-24.78 57.72-38.46 92.82-38.46s68.040 13.68 92.82 38.46l180 180c51.18 51.18 51.18 134.46 0 185.64-19.020 19.020-19.020 49.92 0 68.94s49.92 19.020 68.94 0c89.16-89.16 89.16-234.3 0-323.52l-180-180c-43.2-43.2-100.68-67.020-161.76-67.020z"  horiz-adv-x="1024" />

    
    <glyph glyph-name="youtube-o" unicode="&#58902;" d="M961.5519285333332 135.3955552c0-33.6668448-2.0730314666666665-83.46965333333333-6.196338133333333-149.42435519999998-2.7511466666666666-34.274418133333334-15.942541866666666-61.658453333333334-39.5855648-81.88586666666667-23.711288533333335-20.238791466666665-52.76558186666667-31.015821866666666-87.0991648-32.41528853333333-67.94581333333333-3.3905781333333334-169.95896853333335-5.135928533333333-305.9006581333333-5.135928533333333-136.70172480000002 0-238.64888853333332 1.7453514666666665-305.9120352 5.135928533333333-34.36999146666667 1.3994666666666666-63.358293333333336 12.178773333333334-87.04910186666666 32.41528853333333-23.70673813333333 20.229688533333334-36.904959999999996 47.6137248-39.69934186666667 81.88586666666667-4.0732448 65.94104853333333-6.132621866666667 115.75751146666666-6.132621866666667 149.42435519999998 0 33.64864 2.0753066666666666 83.43552 6.132621866666667 149.37656853333334 2.778453333333333 34.290346666666665 16.006258133333333 61.5810848 39.69934186666667 81.86766186666667 23.674879999999998 20.22513813333333 52.67911146666667 31.031751466666666 87.04910186666666 32.4585248 67.28135146666666 3.383751466666667 169.2239648 5.115448533333334 305.9120352 5.115448533333334 136.62208 0 238.61930666666666-1.7157685333333332 305.8870048-5.115448533333334 34.34951146666666-1.4085685333333333 63.387875199999996-12.233386666666666 87.09461333333334-32.4585248 23.647573333333334-20.286578133333332 36.83669333333333-47.575039999999994 39.58784-81.86766186666667C959.5039285333334 218.8310752 961.5519285333332 169.0441952 961.5519285333332 135.3955552L961.5519285333332 135.3955552zM273.5126752 269.2892448l62.80305813333334 0 0 51.50264853333333L151.9115381333333 320.7918933333333l0-51.50264853333333 61.804088533333335 0 0-301.84334186666666 59.79704853333333 0L273.5126752 269.2892448 273.5126752 269.2892448zM332.1787733333333 896.5893685333333l75.20938666666666 0L350.73137813333335 726.6417781333333c-2.7921066666666667-8.228408533333333-6.146275200000001-17.708373333333334-10.2832352-28.321564799999997-4.150613333333333-10.656426666666666-7.6982048-20.2729248-10.858951466666667-28.824461866666663-3.1084085333333333-8.617528533333333-5.6888885333333326-18.047431466666666-7.682275199999999-28.317013333333332l0-181.2912352-74.21269333333333 0 0 47.907271466666664 0 84.43221333333332 0 40.6960352c-1.3562314666666666 8.226133333333333-11.282204799999999 37.43061333333333-29.8575648 87.54062186666667L159.1569066666667 896.6030218666667l75.17525333333333 0 47.367964799999996-174.06862186666666 5.133653333333333 0L332.1787733333333 896.5893685333333 332.1787733333333 896.5893685333333zM434.1873781333333-32.554098133333355l52.51527146666666 0L486.70264853333333 228.08576000000005l-52.51527146666666 0 0-197.7275733333333c-11.659946666666666-13.098098133333334-22.284515199999998-19.572053333333333-31.919218133333334-19.572053333333333-8.9065248 0-13.407573333333332 5.8208714666666665-13.407573333333332 17.483093333333333l0 199.81653333333333-53.5324448 0 0-219.39086186666665c0-30.212551466666664 12.294826666666667-45.3199648 37.0710752-45.3199648 20.618808533333333 0 41.16935146666666 10.9568 61.78816 32.9295648L434.1873781333333-32.554098133333355 434.1873781333333-32.554098133333355zM594.8142933333334 707.05152l0-166.87104c0-28.8381152-8.569741866666668-50.815431466666666-25.74336-65.9228448-17.1440352-15.1119648-40.49351146666667-22.644053333333332-70.03704853333333-22.644053333333332-28.1577248 0-50.94968853333333 8.044088533333333-68.49422186666668 24.177778133333334-17.494471466666667 16.108658133333332-26.275840000000002 37.96992-26.275840000000002 65.41539519999999L404.2638218666667 708.0800714666666c0 26.7855648 9.470861866666667 47.2086752 28.337493333333335 61.285261866666666 18.8848352 14.094791466666667 42.084124800000005 21.128533333333333 69.57283519999999 21.128533333333333 26.075591466666665 0 48.0233248-7.55712 65.8864352-22.664533333333335C585.8850133333333 752.7037152 594.8142933333334 732.4603733333333 594.8142933333334 707.05152L594.8142933333334 707.05152zM527.9038581333333 535.0468266666667L527.9038581333333 711.18848c0 6.8380448-3.0879285333333333 12.524658133333332-9.270613333333333 17.005226666666665-6.146275200000001 4.430506666666666-12.683946666666666 6.671928533333333-19.585706666666667 6.671928533333333-6.865351466666667 0-13.082168533333332-2.2414218666666663-18.554879999999997-6.671928533333333-5.477261866666667-4.480568533333333-8.207928533333334-10.153528533333334-8.207928533333334-17.005226666666665l0-176.14165333333332c0-17.867661866666666 8.876941866666666-26.799218133333333 26.762808533333335-26.799218133333333C518.2964618666666 508.2476085333333 527.9038581333333 517.1791648 527.9038581333333 535.0468266666667L527.9038581333333 535.0468266666667zM691.6869685333334 22.102471466666657l0 144.22698666666665c0 43.24920853333333-17.18727146666667 64.8624352-51.4889952 64.8624352-17.2009248 0-32.9910048-7.864319999999999-47.4112-23.674879999999998l0 113.34542186666665-53.5165152 0 0-353.3482666666667 53.496035199999994 0 0 20.648391466666666c15.193884800000001-15.846968533333333 31.98520853333333-23.688533333333332 50.54008853333333-23.688533333333332C675.55328-35.62837333333334 691.6869685333334-16.40447999999992 691.6869685333334 22.102471466666657L691.6869685333334 22.102471466666657zM637.1077685333333 164.18815999999993l0-136.96568853333335c0-14.454328533333333-6.198613333333333-21.64736-18.5730848-21.64736-9.614221866666666 0-18.193066666666667 3.80928-25.768391466666667 11.329991466666666l0 162.75456c6.872178133333334 6.892658133333333 14.427021866666665 10.344675200000001 22.71232 10.344675200000001C629.8692266666667 190.00433813333325 637.1077685333333 181.37543146666667 637.1077685333333 164.18815999999993L637.1077685333333 164.18815999999993zM838.9723018666666 782.2495285333333l0-322.4120885333333L773.0289781333333 459.83744l0 36.033421866666664c-25.422506666666667-26.762808533333335-50.829084800000004-40.186311466666666-76.2083552-40.186311466666666-30.915698133333333 0-46.318933333333334 19.226168533333336-46.318933333333334 57.71719146666667L650.5016885333333 782.2495285333333l65.87733333333333 0 0-247.23000853333332c0-14.406541866666666 5.802666666666667-21.615501866666666 17.542258133333334-21.615501866666666 11.61216 0 24.692053333333334 8.207928533333334 39.10997333333333 24.689778133333334L773.0312533333333 782.2495285333333 838.9723018666666 782.2495285333333 838.9723018666666 782.2495285333333zM888.3973685333333 41.62446186666671l0 19.62439146666667-54.60878186666666 0c0-1.4085685333333333 0.1797685333333333-5.855004800000001 0.5552352-13.425778133333333 0.34360853333333335-7.538915199999999 0.34360853333333335-12.850061866666666 0-16.003981866666667-0.4096-3.0765514666666665-1.2424533333333334-6.970026666666667-2.5508981333333334-11.821511466666667-1.4062933333333334-4.7741152-3.8070048-8.242061866666667-7.213511466666667-10.30144-3.4292618666666663-2.0775818666666668-8.267093333333333-3.0742752-14.399715200000001-3.0742752-6.9040352 0-12.215181866666667 2.0593781333333334-15.9926048 6.132621866666667-3.80928 4.13696-5.868658133333333 8.287573333333333-6.198613333333333 12.419981866666665-0.35953813333333334 4.070968533333334-0.5051733333333334 9.964658133333334-0.5051733333333334 17.464888533333333l0 49.4592 100.94819519999999 0L888.4315018666666 157.99182186666667c0 24.052621866666666-6.542221866666667 42.91470186666666-19.569778133333333 56.69319146666667-13.020728533333333 13.726151466666666-31.5619552 20.616533333333333-55.59864853333333 20.616533333333333-23.3472 0-42.77134186666666-7.0542218666666665-58.24056853333333-21.0966752-15.3986848-14.09024-23.101439999999997-32.861298133333335-23.101439999999997-56.19256853333333l0-116.41742186666667c0-24.687501866666665 6.7060618666666665-44.421119999999995 20.02944-59.15534186666666 13.425778133333333-14.731946666666666 32.47445333333334-22.168461866666668 57.1983648-22.168461866666668C861.9940981333333-39.73347519999993 888.3973685333333-12.576995200000056 888.3973685333333 41.62446186666671L888.3973685333333 41.62446186666671zM833.7885866666666 161.16622186666666l0-28.8950048-46.33941333333333 0 0 28.8950048c0 18.507093333333334 7.8848 27.777706666666663 23.724941866666665 27.777706666666663C826.2656 188.9439285333334 833.7885866666666 179.65966186666662 833.7885866666666 161.16622186666666L833.7885866666666 161.16622186666666zM833.7885866666666 161.16622186666666"  horiz-adv-x="1024" />

    
    <glyph glyph-name="game-o" unicode="&#59321;" d="M262.014994 524.022057c-30.828123 0-55.908334-25.069979-55.908334-55.897078 0-30.827099 25.080212-55.897078 55.908334-55.897078 30.821983 0 55.897078 25.069979 55.897078 55.897078C317.912072 498.953102 292.836977 524.022057 262.014994 524.022057L262.014994 524.022057zM262.014994 524.022057M1007.618403 225.97184700000003C973.237361 470.219687 883.546619 757.627513 737.712183 742.905206c-132.926452-13.411451-143.624095-65.682955-225.709625-66.354244-82.123392 0.671289-92.831268 52.941769-225.736231 66.354244C140.455427 757.627513 50.737056 470.219687 16.380574 225.97184700000003-17.967722-18.292366000000015 143.267473 7.573745000000031 196.546933 58.04627700000003c53.269227 50.465368 168.247912 159.817915 190.657294 165.423587 20.332071 5.080715 229.226728 5.080715 249.575172 0 22.429849-5.606695 137.39216-114.958218 190.67776-165.423587C880.715131 7.573745000000031 1041.963629-18.292366000000015 1007.618403 225.97184700000003L1007.618403 225.97184700000003zM262.014994 355.775168c-61.95505 0-112.362091 50.39476-112.362091 112.350834 0 61.954027 50.40704 112.349811 112.362091 112.349811 61.948911 0 112.350834-50.395784 112.350834-112.349811C374.365828 406.169929 323.963904 355.775168 262.014994 355.775168L262.014994 355.775168zM719.540312 567.5749920000001c16.154935 16.132422 42.358737 16.148795 58.492182 0 16.148795-16.154935 16.134469-42.337247 0-58.492182-16.134469-16.145725-42.319851-16.145725-58.492182 0C703.406866 525.237745 703.406866 551.441547 719.540312 567.5749920000001L719.540312 567.5749920000001zM637.328915 434.321082c-16.154935 16.171308-16.137539 42.348504 0 58.508555 16.135492 16.133446 42.317805 16.153912 58.488089 0 16.132422-16.160051 16.132422-42.337247 0-58.508555C679.64672 418.187637 653.464407 418.187637 637.328915 434.321082L637.328915 434.321082zM770.535753 359.60745c-16.139585-16.133446-42.337247-16.154935-58.477856 0-16.166191 16.161075-16.148795 42.338271 0 58.488089 16.139585 16.153912 42.306548 16.153912 58.477856 0C786.670222 401.945721 786.670222 375.74191900000005 770.535753 359.60745L770.535753 359.60745zM852.745103 434.343595c-16.117073-16.135492-42.314735-16.155958-58.492182 0-16.111956 16.171308-16.111956 42.36283 0 58.508555 16.171308 16.132422 42.37511 16.132422 58.492182 0C868.916411 476.706425 868.916411 450.514903 852.745103 434.343595L852.745103 434.343595zM852.745103 434.343595"  horiz-adv-x="1024" />

    
    <glyph glyph-name="friend" unicode="&#58891;" d="M345.296 486.37c-1.085 12.045 3.901 21.147 6.897 26.619 0.559 1.065 1.318 2.439 1.68 3.267-2.546 12.138-4.335 23.73-5.526 34.874l-15.442 2.652-9.824 9.102c-39.584 24.362-82.041 7.258-104.758-1.933-32.775-10.638-53.471-56.976-39.024-125.508 2.474-11.701-6.413-16.94-5.817-23.33 1.264-13.959 1.518-47.552 14.736-55.819 1.211-0.761 10.564-3.105 10.51-2.476 1.3-13.6 2.599-27.197 3.901-40.795 3.286-9.049 11.197-10.041 13.489-22.788l-10.131-2.476c-4.534-9.679-12.858-29.13-21.364-34.98-7.133-1.933-14.25-3.863-21.365-5.814-24.974-10.238-52.713-22.499-77.741-33.044-22.772-9.609-50.041-13.041-58.277-36.916 0-16.215-1.552-54.538-1.119-75.772h112.74c0.146 6.933 0.307 13.887 0.468 20.586 0.342 14.721 0.687 28.606 0.687 37.236v4.643l1.517 4.404c13.398 38.81 48.686 51.052 77.056 60.857 7.151 2.477 13.923 4.823 20.189 7.458 13.778 5.815 28.118 11.991 42.601 18.222 21.311 9.153 43.287 18.586 63.929 27.090-1.030 2.238-1.986 4.295-2.8 6.030-4.532 0.65-9.047 1.302-13.598 1.952 0.704 14.95 9.969 15.765 13.598 27.193 3.215 10.096 0.325 23.187 5.418 32.507 3.54 6.485 11.504 6.538 15.494 12.083 3.613 5.054 5.995 13.868 7.115 20.027 0.613 3.321 1.173 7.005 1.553 10.818-21.634 19.934-24.342 58.688-26.13 85.143-0.234 3.343-0.432 6.339-0.666 8.886zM1000.966 177.005c-8.236 23.875-35.501 27.308-58.292 36.916-25.008 10.545-52.748 22.807-77.723 33.044-7.118 1.95-14.247 3.882-21.366 5.814-8.505 5.851-16.829 25.299-21.38 34.98-4.533 0.65-9.066 1.302-13.598 1.952 0.683 14.95 9.969 15.765 13.598 27.193 3.198 10.096 0.341 23.187 5.414 32.507 3.523 6.485 11.506 6.538 15.475 12.083 3.634 5.054 6.017 13.868 7.135 20.027 2.059 11.284 3.847 26.742-1.515 37.939-3.071 6.43-5.020 7.041-5.868 14.845-1.051 9.461 2.781 40.326 2.94 47.006 0.379 17.319-0.033 32.977-4.223 49.845 0 0-5.091 15.277-13.057 19.881l-15.908 2.745-9.826 9.102c-39.602 24.362-82.041 7.258-104.773-1.933-12.64-4.098-23.457-13.6-31.186-27.558-0.254-4.623-0.346-8.414-0.126-10.347 0.107-1.029 0.212-1.626 0.269-1.915 0.269-0.507 0.577-0.994 0.901-1.536 1.156-1.987 2.745-4.695 4.513-8.434 11.143-23.294 7.856-51.196 4.405-70.176-1.696-9.37-5.886-26.942-14.751-39.294-2.311-3.231-4.878-5.834-7.44-7.999 1.407-14.791 4.423-31.841 13.308-37.399 1.228-0.761 10.583-3.105 10.529-2.476 1.3-13.6 2.582-27.197 3.882-40.795 3.286-9.049 11.213-10.041 13.51-22.788l-10.13-2.476c-0.799-1.679-1.701-3.685-2.709-5.849 20.748-8.544 42.866-18.022 64.287-27.252 14.5-6.23 28.895-12.426 42.673-18.241 6.265-2.638 13.037-4.982 20.209-7.458 28.366-9.804 63.653-22.047 77.036-60.857l1.536-4.404v-4.643c0-8.631 0.323-22.517 0.688-37.236 0.143-6.7 0.323-13.652 0.466-20.586h112.217c0.414 21.233-1.121 59.555-1.121 75.771zM637.283 656.268c5.888-23.661 6.466-45.636 5.924-69.923-0.215-9.375-5.599-52.675-4.134-65.932 1.191-10.963 3.937-11.846 8.251-20.859 7.514-15.711 5.004-37.383 2.113-53.221-1.571-8.663-4.912-21.002-9.985-28.060-5.582-7.822-16.777-7.877-21.726-16.976-7.134-13.074-3.106-31.46-7.601-45.619-5.11-16.035-18.114-17.152-19.088-38.156 6.377-0.902 12.732-1.823 19.088-2.732 6.377-13.557 18.060-40.846 29.994-49.043 9.988-2.747 19.973-5.472 29.98-8.182 35.035-14.377 73.933-31.55 109.037-46.355 31.962-13.49 70.231-18.293 81.786-51.794 0-22.751 2.154-76.495 1.553-106.31h-696.23c-0.579 29.814 1.552 83.559 1.552 106.31 11.557 33.501 49.823 38.303 81.787 51.794 35.106 14.807 74.023 31.98 109.039 46.355 9.986 2.711 19.99 5.437 29.977 8.182 11.954 8.196 23.622 35.485 29.997 49.043l14.211 3.468c-3.232 17.917-14.32 19.289-18.962 31.984-1.788 19.068-3.631 38.157-5.437 57.245 0.092-0.902-13.056 2.385-14.773 3.45-18.511 11.628-18.889 58.729-20.677 78.32-0.813 8.957 11.629 16.305 8.18 32.721-20.281 96.147 8.777 161.156 54.736 176.075 31.893 12.931 91.45 36.895 146.999 2.726l13.778-12.785 22.301-3.829c11.197-6.462 18.329-27.898 18.329-27.898z"  horiz-adv-x="1024" />

    
    <glyph glyph-name="down" unicode="&#58883;" d="M142.557 622.859l413.182-390.859c25.355-23.98 25.355-62.866 0-86.86-25.355-23.98-66.473-23.98-91.828 0l-413.182 390.86c-25.355 23.98-25.355 62.866 0 86.86 25.369 23.979 66.46 23.979 91.828-0.001zM968.896 622.859c25.369-23.991 25.369-62.88 0-86.86l-413.157-390.859c-25.355-23.98-66.473-23.98-91.828 0-25.343 23.991-25.343 62.88 0 86.86l413.182 390.859c25.355 23.98 66.471 23.98 91.803 0z"  horiz-adv-x="1024" />

    
    <glyph glyph-name="folder" unicode="&#59339;" d="M878.551 47.916c-7.756-28.627-26.304-58.623-58.672-58.623h-722.959l98.196 462.023c5.894 34.537 26.147 58.649 58.51 58.649h664.447c32.373 0 58.57-26.255 58.57-58.649l-98.093-403.4zM204.114 566.056h659.743v57.584c0 32.396-26.309 58.645-58.619 58.645h-413.225v37.8c0 32.342-26.259 58.624-58.628 58.624h-231.86c-32.372 0-58.624-26.282-58.624-58.624v-672.17l102.546 459.469c6.637 32.67 24.864 56.653 58.667 58.671v0 0 0 0 0 0zM204.114 566.056z"  horiz-adv-x="1024" />

    
    <glyph glyph-name="comment-o" unicode="&#58893;" d="M771.896 895.989c-292.781 0-530.958-204.155-530.958-455.107 0-216.863 177.003-401.977 423.177-445.329l76.914-107.667c7.13-9.976 18.623-15.891 30.867-15.891 12.252 0 23.745 5.914 30.874 15.891l76.915 107.707c246.174 43.311 423.177 228.391 423.177 445.288 0 250.953-238.177 455.107-530.966 455.107v0zM506.458 365.031c-41.835 0-75.852 34.016-75.852 75.85 0 41.828 34.016 75.85 75.852 75.85 41.828 0 75.85-34.022 75.85-75.85 0-41.835-34.022-75.85-75.85-75.85v0zM771.937 365.031c-41.833 0-75.85 34.016-75.85 75.85 0 41.828 34.016 75.85 75.85 75.85s75.85-34.022 75.85-75.85c0-41.835-34.017-75.85-75.85-75.85v0zM1037.415 365.031c-41.828 0-75.85 34.016-75.85 75.85 0 41.828 34.022 75.85 75.85 75.85 41.833 0 75.85-34.022 75.85-75.85 0-41.835-34.016-75.85-75.85-75.85v0zM1037.415 365.031z"  horiz-adv-x="1543" />

    
    <glyph glyph-name="facebook" unicode="&#58926;" d="M973.26 589.279c-0.18 14.691-0.271 20.732-0.361 27.67-0.362 20.732-1.712 41.642-5.227 60.389-3.876 20.37-9.012 38.939-18.477 57.505-9.555 18.838-22.624 35.061-36.774 49.573-14.512 14.15-30.826 27.22-49.574 36.775-18.567 9.374-37.046 14.603-57.504 18.477-18.749 3.515-39.66 4.867-60.389 5.227-6.941 0.091-12.978 0.18-27.67 0.362-14.060 0.090-25.508 0.18-33.981 0.18h-342.78c-8.471 0-19.92-0.091-33.891-0.18-14.692-0.18-20.732-0.271-27.67-0.362-20.732-0.361-41.642-1.712-60.389-5.227-20.37-3.876-38.939-9.012-57.505-18.477-18.838-9.555-35.061-22.624-49.573-36.775-14.15-14.511-27.22-30.826-36.775-49.573-9.374-18.567-14.603-37.045-18.477-57.505-3.515-18.749-4.867-39.66-5.227-60.389-0.091-4.687-0.091-9.012-0.18-15.773l-0.271-405.601c0-5.137 0.091-10.725 0.091-16.855 0.18-14.692 0.271-20.732 0.361-27.67 0.361-20.732 1.712-41.642 5.227-60.389 1.712-8.924 3.605-17.487 6.039-25.778 3.154-10.725 7.12-21.182 12.438-31.637 9.555-18.838 22.624-35.061 36.775-49.573 14.511-14.15 30.826-27.22 49.573-36.775 18.567-9.374 37.045-14.603 57.505-18.477 18.749-3.515 39.66-4.867 60.389-5.227 6.941-0.091 12.978-0.18 27.67-0.361 13.971-0.091 25.417-0.18 33.891-0.18h192.886v357.829h-116.002v133.85h115.193v124.565c0 95.631 73.91 164.134 169.452 164.134l123.663-2.704v-128.53h-94.461c-27.31 0-49.483-30.195-49.483-57.596v-99.869h139.347l-19.829-133.938h-123.935v-357.831h5.95c8.471 0 19.92 0.091 33.891 0.18 11.628 0.091 17.847 0.18 23.344 0.18 1.441 0 2.883 0 4.417 0.091 20.732 0.361 41.642 1.712 60.389 5.227 20.37 3.876 38.939 9.012 57.504 18.478 18.838 9.555 35.061 22.624 49.574 36.775 14.15 14.511 27.22 30.826 36.774 49.573 9.374 18.567 14.603 37.045 18.477 57.504 3.516 18.749 4.867 39.66 5.227 60.389 0.090 6.941 0.18 12.98 0.361 27.67 0.091 13.971 0.181 25.418 0.181 33.89v352.602c0 6.85-0.090 14.963-0.18 24.156z"  horiz-adv-x="1024" />

    
    <glyph glyph-name="friend-o-a" unicode="&#58900;" d="M473.937 621.313c16.758-8.009 20.14-22.47 8.032-48.441l-67.233-144.183c-50.941-109.246-133.305-178.66-231.109-133.054-97.806 45.607-97.62 153.212-46.707 262.397l67.652 145.079c11.191 24.001 25.116 32.097 42.213 23.968s213.808-99.391 227.153-105.767zM172.371 306.046l30.859-14.389-67.212-144.138-30.859 14.389 67.212 144.138zM35.611 212.56l185.158-86.341-14.717-31.559-185.158 86.341 14.717 31.559zM548.577 621.313c-16.758-8.009-20.14-22.47-8.032-48.441l67.233-144.183c50.941-109.246 133.305-178.66 231.109-133.054 97.806 45.607 97.62 153.212 46.707 262.397l-67.652 145.079c-11.191 24.001-25.116 32.097-42.213 23.968s-213.808-99.391-227.153-105.767zM850.058 306.23l-30.859-14.389 67.298-144.321 30.859 14.389-67.298 144.321zM986.903 212.56l-185.158-86.341 14.717-31.559 185.158 86.341-14.717 31.559zM569.056 268.947c-24.402 0-47.093-23.111-62.026-40.459-14.929 17.353-37.613 40.459-62.028 40.459-43.994 0-79.78-33.629-79.78-74.964 0-24.661 12.818-41.963 23.121-55.862 29.947-40.375 105.244-90.62 108.432-92.737 3.071-2.038 6.667-3.061 10.247-3.061 3.591 0 7.181 1.022 10.247 3.061 3.191 2.117 78.496 52.362 108.432 92.737 10.309 13.9 23.132 31.201 23.132 55.862 0 41.337-35.789 74.964-79.78 74.964v0z"  horiz-adv-x="1024" />

    
    <glyph glyph-name="heart" unicode="&#58888;" d="M990.025 565.973c-1.967 127.985-96.762 226.673-221.493 240.907-99.080 11.307-197.63-37.962-253.491-118.363-47.797 77.49-142.135 117.655-233.031 119.514-139.055 2.85-238.477-105.672-247.509-239.523-9.92-146.963 113.559-295.048 204.2-397.175 50.763-57.2 106.345-110.706 166.135-158.406 26.905-21.457 60.557-51.543 96.384-59.353 3.459-1.393 7.518-2.067 12.175-1.768 4.605-0.303 8.622 0.337 12.054 1.686 34.55 7.278 66.96 34.708 93.502 54.912 57.906 44.068 110.925 94.3 160.405 147.576 100.142 107.825 213.050 254.942 210.667 409.993v0zM990.025 565.973z"  horiz-adv-x="1024" />

    
    <glyph glyph-name="message" unicode="&#58915;" d="M443.191 623.388h441.122c74.974 0 135.731-60.774 135.731-135.73v-237.529c0-74.956-60.758-135.731-135.731-135.731h-33.932l67.863-169.662-271.46 169.662h-203.594c-74.956 0-135.73 60.775-135.73 135.731v237.529c0 74.957 60.774 135.73 135.73 135.73zM154.976 827.174h441.124c75.214 0 160.207-65.166 152.485-169.854h-305.393c-85.074 0.001-169.662-76.361-169.453-161.162l0.114-230.928-186.743-116.707 67.865 169.664c-84.319 0-152.697 68.362-152.697 152.695v203.595c0 84.334 68.379 152.697 152.697 152.697z"  horiz-adv-x="1024" />

    
    <glyph glyph-name="time" unicode="&#58884;" d="M512 864c-264 0-480-216-480-480s216-480 480-480 480 216 480 480c0 264-216 480-480 480v0zM128 350.4c-19.2 0-33.6 14.4-33.6 33.6s14.4 33.6 33.6 33.6c19.2 0 33.6-14.4 33.6-33.6 0-19.2-14.4-33.6-33.6-33.6v0zM512 801.6c19.2 0 33.6-14.4 33.6-33.6s-14.4-33.6-33.6-33.6c-19.2 0-33.6 14.4-33.6 33.6 0 19.2 14.4 33.6 33.6 33.6v0zM512-38.4c-19.2 0-33.6 14.4-33.6 33.6s14.4 33.6 33.6 33.6c19.2 0 33.6-14.4 33.6-33.6 0-19.2-14.4-33.6-33.6-33.6v0zM795.2 590.4l-187.2-172.8c14.4-38.4 4.8-81.6-24-110.4-38.4-38.4-105.6-38.4-144 0-28.8 28.8-38.4 72-24 110.4l-124.8 115.2c-19.2 14.4-19.2 43.2 0 57.6 14.4 14.4 43.2 14.4 57.6 0l129.6-115.2c24 9.6 52.8 9.6 76.8 0l182.4 172.8c14.4 14.4 43.2 14.4 57.6 0s14.4-43.2 0-57.6v0zM896 350.4c-19.2 0-33.6 14.4-33.6 33.6s14.4 33.6 33.6 33.6c19.2 0 33.6-14.4 33.6-33.6 0-19.2-14.4-33.6-33.6-33.6v0zM896 350.4z"  horiz-adv-x="1024" />

    
    <glyph glyph-name="vip" unicode="&#58949;" d="M1013.633 360.515c13.822 12.798 13.822 34.3 0 47.098l-79.862 71.671c-9.215 8.191-12.798 21.501-8.703 33.276l33.276 101.875c5.631 17.918-5.119 36.859-23.549 40.955l-104.947 22.013c-12.286 2.56-22.013 12.286-24.573 24.573l-22.013 104.435c-4.095 18.43-23.037 29.18-40.955 23.549l-101.875-33.276c-11.775-4.095-25.085-0.512-33.276 8.703l-71.671 80.374c-12.798 13.822-34.3 13.822-47.098 0l-71.671-79.862c-8.191-9.215-21.501-12.798-33.276-8.703l-101.875 32.764c-17.918 5.631-36.859-5.119-40.955-23.549l-22.013-104.947c-2.56-12.286-12.286-22.013-24.573-24.573l-104.435-21.501c-18.43-4.095-29.18-23.037-23.549-40.955l33.276-101.875c4.095-11.775 0.512-25.085-8.703-33.276l-80.374-71.671c-13.822-12.798-13.822-34.3 0-47.098l79.862-71.671c9.215-8.191 12.798-21.501 8.703-33.276l-32.764-101.875c-5.631-17.918 5.119-36.859 23.549-40.955l104.947-22.013c12.286-2.56 22.013-12.286 24.573-24.573l22.013-104.947c4.095-18.43 23.037-29.18 40.955-23.549l101.875 33.276c11.775 4.095 25.085 0.512 33.276-8.703l71.671-79.862c12.798-13.822 34.3-13.822 47.098 0l71.671 79.862c8.191 9.215 21.501 12.798 33.276 8.703l101.875-33.276c17.918-5.631 36.859 5.119 40.955 23.549l22.013 104.947c2.56 12.286 12.286 22.013 24.573 24.573l104.947 22.013c18.43 4.095 29.18 23.037 23.549 40.955l-33.276 101.875c-4.095 11.775-0.512 25.085 8.703 33.276l79.35 71.671zM799.132 499.25l-341.973-341.973c-9.215-9.215-21.501-13.822-33.788-13.822-12.286 0-24.573 4.607-33.788 13.822l-195.56 195.56c-18.43 18.43-18.43 49.146 0 67.576 18.43 18.43 49.146 18.43 67.576 0l161.772-161.772 308.185 308.185c18.43 18.43 49.146 18.43 67.576 0 18.942-18.43 18.942-48.634 0-67.576z"  horiz-adv-x="1024" />

    
    <glyph glyph-name="friend-o-b" unicode="&#59029;" d="M145.642 198.426v190.544c0 51.661 41.879 93.539 93.539 93.539h126.553c17.289 0 33.469-4.709 47.363-12.886-41.564-25.029-69.373-70.579-69.373-122.633v-195.332l-151.313 0c-25.83-0.002-46.769 20.938-46.769 46.768zM199.358 608.961c0 57.4 46.547 103.933 103.967 103.933s103.967-46.533 103.967-103.933-46.547-103.933-103.967-103.933c-57.42 0.001-103.967 46.534-103.967 103.933zM373.989 319.478c0 79.010 64.051 143.060 143.060 143.060h211.84c79.010 0 143.060-64.051 143.060-143.060v-310.88c0-39.505-32.024-71.53-71.53-71.53l-354.9 0c-39.505 0-71.53 32.024-71.53 71.53l0 310.88zM459.274 663.373c0 91.165 73.904 165.070 165.070 165.070s165.070-73.904 165.070-165.070-73.904-165.070-165.070-165.070-165.070 73.904-165.070 165.070z"  horiz-adv-x="1024" />

    
    <glyph glyph-name="tag" unicode="&#58913;" d="M954.186 513.072l-299.317 291.308c-41.47 40.195-120.332 40.268-161.91-0.109l-372.099-363.98c-64.189-62.259-80.464-87.273-80.464-171.777v-163.767c0-151.060 30.692-218.453 212.665-218.453h150.041c92.297 0 146.145 53.084 220.674 126.594l329.973 338.711c21.153 20.462 33.278 50.026 33.278 81.083 0 30.838-11.979 60.147-32.841 80.39zM296.97 50.060c-60.221 0-109.227 49.006-109.227 109.227s49.006 109.227 109.227 109.227 109.227-49.006 109.227-109.227-49.006-109.227-109.227-109.227z"  horiz-adv-x="1024" />

    
    <glyph glyph-name="icface" unicode="&#59025;" d="M67.811 318.464v0c-29.127 29.127-29.127 72.818 0 101.945l116.509 116.509-109.227 109.227c-29.127 29.127-29.127 72.818 0 101.945v0c29.127 29.127 72.818 29.127 101.945 0l167.481-167.481c29.127-29.127 29.127-72.818 0-101.945l-167.481-167.481c-29.127-21.845-80.099-21.845-109.227 7.282zM846.962 311.182l-167.481 167.481c-29.127 29.127-29.127 72.818 0 101.945l167.481 167.481c29.127 29.127 72.818 29.127 101.945 0v0c29.127-29.127 29.127-72.818 0-101.945l-116.509-116.509 116.509-109.227c29.127-29.127 29.127-72.818 0-101.945v0c-21.845-29.127-72.818-29.127-101.945-7.282zM512-9.216l-123.79 123.79c-29.127 29.127-29.127 72.818 0 101.945s72.818 29.127 101.945 0l21.845-14.563 21.845 21.845c29.127 29.127 72.818 29.127 101.945 0s29.127-72.818 0-101.945l-123.79-131.072z"  horiz-adv-x="1024" />

    
    <glyph glyph-name="cosplay" unicode="&#59033;" d="M853.333 704.853c-61.44 61.44-177.493 157.013-334.507 157.013-170.667 0-300.373-109.227-354.987-157.013l-129.707-68.267 61.44-109.227c-13.653-54.613-54.613-245.76-54.613-573.44v-47.787l266.24 75.093 68.267-68.267 68.267 68.267c0 0 6.827 0 6.827 0l68.267-68.267 68.267 68.267c0 0 0 0 0 0l68.267-68.267 68.267 68.267v-61.44l54.613 40.96c6.827 6.827 116.053 88.747 170.667 163.84 61.44 81.92 47.787 300.373-6.827 409.6l47.787 102.4-136.533 68.267zM723.627 69.973v0c0 6.827 0 6.827 0 0l-68.267 61.44-75.093-75.093-68.267 68.267-68.267-61.44-75.093 75.093-61.44-61.44c-6.827 6.827-13.653 6.827-20.48 13.653-34.133 27.307-54.613 47.787-61.44 68.267 0 20.48 20.48 47.787 40.96 75.093l6.827 6.827v6.827c0 40.96 0 102.4 0 122.88l40.96 81.92 54.613-27.307 54.613 54.613 68.267-102.4 68.267 102.4 54.613-54.613 61.44 27.307c20.48-27.307 47.787-81.92 47.787-170.667v-211.627zM894.293 172.373c-27.307-34.133-68.267-75.093-102.4-102.4v218.453c0 150.187-75.093 232.107-81.92 232.107l-20.48 20.48-61.44-34.133-75.093 75.093-61.44-88.747-61.44 88.747-75.093-75.093-75.093 40.96-68.267-150.187v-13.653c0 0 0-68.267 0-116.053-27.307-27.307-54.613-68.267-54.613-116.053 6.827-40.96 34.133-75.093 81.92-116.053l-129.707-40.96c0 341.333 54.613 525.653 54.613 525.653l6.827 13.653-40.96 75.093 68.267 34.133 6.827 6.827c47.787 40.96 163.84 143.36 314.027 143.36 136.533 0 238.933-88.747 293.547-143.36l13.653-6.827c27.307-6.827 54.613-27.307 75.093-34.133-6.827-13.653-13.653-34.133-27.307-54.613l-6.827-13.653 6.827-20.48c54.613-81.92 68.267-293.547 20.48-348.16zM320.853 295.253c0-30.162 24.451-54.613 54.613-54.613s54.613 24.451 54.613 54.613c0 30.162-24.451 54.613-54.613 54.613-30.162 0-54.613-24.451-54.613-54.613zM566.613 295.253c0-30.162 24.451-54.613 54.613-54.613s54.613 24.451 54.613 54.613c0 30.162-24.451 54.613-54.613 54.613-30.162 0-54.613-24.451-54.613-54.613z"  horiz-adv-x="1024" />

    
    <glyph glyph-name="notice" unicode="&#59599;" d="M551.040-68.907c18.987-17.493 43.52-26.987 69.227-26.987 1.387 0 2.88 0 4.373 0.107 27.307 1.173 52.587 12.907 71.040 32.96 19.733 21.44 28.373 49.173 26.56 76.16l-191.36-59.947c7.573-9.28 14.613-17.067 20.16-22.293zM912.533 249.6l-1.28 4.16c-16.533 52.693-72.96 82.133-125.653 65.707l-2.027-0.64-76.373 243.413c-39.787 126.933-155.413 209.28-281.493 213.333l-5.12 16.533c-8.213 26.133-26.027 47.467-50.24 60.16s-51.947 15.147-78.080 6.933c-53.867-16.96-83.947-74.453-66.987-128.32l5.12-16.533c-101.333-75.307-149.333-208.96-109.547-335.893l76.373-243.52-2.027-0.64c-52.8-16.533-82.24-72.853-65.707-125.653l1.28-4.16c13.44-42.773 53.12-70.293 95.787-70.293 9.92 0 19.947 1.493 29.867 4.587l590.4 185.067c52.693 16.64 82.133 73.067 65.707 125.76z"  horiz-adv-x="1024" />

    
    <glyph glyph-name="mail" unicode="&#58892;" d="M906.279 6.856c21.579 0 40.278 7.125 56.173 21.194l-271.984 271.994c-6.526-4.672-12.85-9.217-18.825-13.537-20.354-14.996-36.874-26.698-49.559-35.083-12.683-8.405-29.558-16.971-50.623-25.717-21.079-8.756-40.717-13.121-58.934-13.121h-1.067c-18.218 0-37.856 4.362-58.934 13.121-21.077 8.746-37.953 17.313-50.623 25.717-12.683 8.385-29.194 20.086-49.559 35.083-5.675 4.161-11.969 8.725-18.773 13.611l-272.035-272.067c15.893-14.069 34.604-21.194 56.182-21.194h788.561zM86.113 471.319c-20.352 13.568-38.4 29.108-54.113 46.613v-413.816l239.725 239.725c-47.959 33.482-109.751 75.925-185.612 127.478zM938.429 471.319c-72.968-49.387-134.985-91.905-186.058-127.574l239.629-239.64v413.827c-15.364-17.152-33.218-32.682-53.571-46.613zM906.279 761.144h-788.559c-27.511 0-48.661-9.29-63.478-27.85-14.828-18.569-22.231-41.792-22.231-69.642 0-22.496 9.823-46.871 29.461-73.132 19.638-26.25 40.534-46.869 62.677-61.868 12.14-8.577 48.748-34.028 109.826-76.343 32.971-22.848 61.644-42.763 86.284-59.948 21.003-14.633 39.115-27.307 54.069-37.823 1.717-1.205 4.417-3.136 8-5.697 3.861-2.773 8.746-6.292 14.773-10.644 11.606-8.394 21.248-15.179 28.928-20.362 7.669-5.185 16.96-10.977 27.861-17.408 10.892-6.423 21.164-11.253 30.806-14.465 9.644-3.211 18.571-4.821 26.783-4.821h1.067c8.211 0 17.14 1.611 26.785 4.821 9.64 3.212 19.904 8.032 30.804 14.465 10.89 6.431 20.169 12.235 27.863 17.408 7.679 5.183 17.321 11.967 28.929 20.363 6.015 4.352 10.9 7.873 14.761 10.635 3.585 2.572 6.283 4.492 8.011 5.707 11.649 8.107 29.804 20.727 54.212 37.675 44.413 30.859 109.822 76.278 196.502 136.439 26.069 18.208 47.849 40.181 65.353 65.888 17.473 25.706 26.233 52.672 26.233 80.887 0 23.573-8.494 43.744-25.444 60.545-16.969 16.779-37.063 25.173-60.277 25.173z"  horiz-adv-x="1024" />

    
    <glyph glyph-name="time-o" unicode="&#58921;" d="M912 738.72h-80v40c0 22.080-17.92 40-40 40h-80c-22.080 0-40-17.92-40-40v-40h-320v40c0 22.080-17.92 40-40 40h-80c-22.080 0-40-17.92-40-40v-40h-80c-44.16 0-80-35.84-80-80v-640c0-44.16 35.84-80 80-80h800c44.16 0 80 35.84 80 80v640c0 44.24-35.84 80-80 80zM352 138.72c0-22.080-17.92-40-40-40h-80c-22.080 0-40 17.92-40 40v80c0 22.080 17.92 40 40 40h80c22.080 0 40-17.92 40-40v-80zM352 378.72c0-22.080-17.92-40-40-40h-80c-22.080 0-40 17.92-40 40v80c0 22.080 17.92 40 40 40h80c22.080 0 40-17.92 40-40v-80zM592 138.72c0-22.080-17.92-40-40-40h-80c-22.080 0-40 17.92-40 40v80c0 22.080 17.92 40 40 40h80c22.080 0 40-17.92 40-40v-80zM592 378.72c0-22.080-17.92-40-40-40h-80c-22.080 0-40 17.92-40 40v80c0 22.080 17.92 40 40 40h80c22.080 0 40-17.92 40-40v-80zM832 138.72c0-22.080-17.92-40-40-40h-80c-22.080 0-40 17.92-40 40v80c0 22.080 17.92 40 40 40h80c22.080 0 40-17.92 40-40v-80zM832 378.72c0-22.080-17.92-40-40-40h-80c-22.080 0-40 17.92-40 40v80c0 22.080 17.92 40 40 40h80c22.080 0 40-17.92 40-40v-80z"  horiz-adv-x="1024" />

    
    <glyph glyph-name="friend-o-c" unicode="&#58899;" d="M416.474-50.185c-0.612 0-1.22 0-1.628 0.098-1.021 5.49-0.814 19.414 7.926 42.882l75.696 205.461c19.615 53.142 65.033 91.652 108.013 91.652 8.025 0 15.85-1.323 23.169-4.064 48.065-17.679 72.651-71.131 54.972-119.19-21.949-59.442-105.473-143.575-178.731-179.952l-49.084-24.385c-22.861-11.283-35.764-12.502-40.334-12.502M416.474-93.572c16.154 0 36.274 5.486 59.541 16.967l49.079 24.385c84.236 41.868 174.261 133.623 200.17 203.834 25.915 70.42-10.358 149.061-80.681 174.975-12.395 4.57-25.199 6.702-38.102 6.702-60.254 0-122.034-47.452-148.754-120.102l-75.703-205.451c-23.571-63.815-7.922-101.31 34.45-101.31v0 0 0zM326.445 162.384c55.483 0 107.909 34.141 128.133 89.113 25.909 70.317-25.097 154.45-113.293 186.866l-205.461 75.694c-20.223 7.418-37.695 10.976-52.33 10.976-49.079 0-64.321-40.034-32.111-104.963l24.385-49.074c41.868-84.237 133.622-174.266 203.833-200.175 15.551-5.789 31.298-8.436 46.844-8.436v0 0 0zM940.481 242.966c49.179 0 64.321 40.030 32.108 104.963l-24.385 49.075c-41.863 84.236-133.619 174.265-203.828 200.175-15.349 5.693-31.199 8.33-46.746 8.33-55.477 0-107.908-34.137-128.127-89.114-25.915-70.311 25.091-154.445 113.293-186.86l205.357-75.598c20.219-7.417 37.799-10.972 52.329-10.972v0 0 0zM417.587 434.602c60.262 0 122.039 47.452 148.762 120.101l75.696 205.46c23.472 63.806 7.824 101.408-34.544 101.408-16.154 0-36.274-5.49-59.546-16.967l-49.079-24.385c-84.237-41.868-174.261-133.622-200.176-203.833-25.91-70.313 10.471-148.964 80.784-174.874 12.399-4.676 25.2-6.912 38.103-6.912v0 0 0zM417.587 434.602z"  horiz-adv-x="1024" />

    
    <glyph glyph-name="fire" unicode="&#58933;" d="M536.211 896c27.362-49.805 44.442-116.877 44.442-191.125 0-153.293-71.718-277.598-160.247-277.598-68.992 0-127.292 76.002-149.871 181.995-80.162-113.212-147.678-247.317-147.678-380.045 0-197.303 174.242-357.227 389.124-357.227 214.921 0 389.163 159.923 389.163 357.227-0.004 358.396-350.622 654.805-364.932 666.773v0zM515.198-42.615c-131.098 0-170.219 101.508-163.465 142.447 13.466 81.583 94.029 94.895 154.88 94.895 144.819 0 203.123 150.754 206.566 189.837-0.004 0 52.134-427.179-197.982-427.179v0z"  horiz-adv-x="1024" />

    
    <glyph glyph-name="user1" unicode="&#58970;" d="M845.419 264.841c-20.848 46.901-148.367 87.639-148.367 87.639-68.012 24.251-68.573 48.442-68.573 48.442-133.562-266.764-235.13-0.769-235.13-0.769-9.302-35.986-146.928-78.207-146.928-78.207-40.178-15.657-57.167-39.137-57.167-39.137-59.447-89.239-66.45-288.003-66.45-288.003 0.781-45.36 20.128-50.112 20.128-50.112 136.743-61.779 351.225-72.753 351.225-72.753 220.323-4.682 380.657 63.33 380.657 63.33 23.23 15.006 23.91 26.693 23.91 26.693 16.287 142.365-53.305 302.879-53.305 302.879zM359.574 541.939c10.263-85.841 83.259-174.702 149.29-174.702 76.095 0 148.327 93.413 159.593 174.702 4.323 3.091 11.366 10.525 13.968 27.462 0 0 16.207 58.958-5.344 52.544 7.485 22.713 32.317 111.062-15.827 166.048 0 0-22.49 31.115-77.315 47.67l-25.651 8.913c-10.004 7.444-30.355 24.951-30.355 44.33 0 0-12.667-5.962-20.149-16.938 2.921 8.913 7.863 17.447 15.806 24.322 0 0-8.324-4.433-16.046-13.868-5.962-3.402-19.648-12.766-24.212-29.703l0.34 1.219c0 0-2.82 3.721-10.464 4.874-7.524 1.1-20.731-4.043-20.731-4.043s-79.917-31.625-103.046-104.377c0 0-13.687-32.976 4.32-129.601-25.613 12.254-8.125-51.394-8.125-51.394 2.661-16.937 9.705-24.369 13.947-27.461zM505.101 879.225c-3.92-5.461-7.243-12.325-8.823-20.669l-2.861 1.041c2.201 7.171 5.922 13.786 11.684 19.628z"  horiz-adv-x="1024" />

    
    <glyph glyph-name="wangyiyun" unicode="&#58941;" d="M614.217 878.018c-59.037-21.684-104.812-84.935-104.812-145.774 0-18.072 4.215-47.591 9.639-65.66 5.415-18.072 8.43-33.734 7.228-34.335-0.601-1.205-19.88-10.239-42.769-20.479-80.119-36.747-137.345-111.44-148.789-194.57-19.877-139.754 66.263-254.208 190.957-254.208 80.113 0 148.786 47.591 177.096 121.68 18.677 50.601 12.655 115.658-22.286 225.892-9.032 28.311 60.243-10.239 105.42-59.634 55.42-60.237 75.298-149.393 51.805-236.134-21.085-76.502-84.932-150.601-161.438-185.533-203.604-93.373-425.275 12.648-486.115 232.517-22.891 82.526-15.060 160.233 24.698 245.77 30.719 66.263 95.175 132.525 162.040 165.657 53.611 26.505 64.457 35.54 69.273 57.83 4.218 20.479-9.639 50.601-28.311 60.839-39.758 21.687-130.116-23.493-212.639-106.016-75.901-75.901-112.042-141.56-131.923-239.148-42.769-207.213 63.853-427.684 251.194-518.648 68.068-33.734 124.087-46.377 201.195-46.377 169.872 0 319.258 86.738 392.149 227.695 36.141 69.273 45.178 110.838 41.564 193.966-3.013 79.517-12.046 113.25-45.18 168.064-54.816 90.96-148.184 156.621-238.542 168.667l-30.117 3.617-10.85 36.141c-15.052 49.998-13.852 66.263 4.82 80.717 19.877 15.661 41.564 16.264 68.671 1.205 51.202-28.913 60.243-31.321 80.72-24.694 21.085 6.622 39.751 33.128 39.751 56.621 0 21.687-29.51 53.008-70.478 72.89-42.764 21.081-105.414 25.902-143.97 11.443zM581.081 441.296c21.088-78.311 22.896-100.598 10.243-125.296-20.479-38.549-80.113-51.805-109.633-24.093-24.698 22.888-32.526 43.973-32.526 86.741 0 44.578 12.046 74.093 40.356 99.997 20.484 19.275 63.853 42.167 68.676 36.745 1.805-2.413 12.046-35.544 22.884-74.093z"  horiz-adv-x="1024" />

    
    <glyph glyph-name="hot-o" unicode="&#58887;" d="M371.722 875.932v-984.121l984.121 984.121h-984.121zM781.773 629.897l-41.007-41.007v-205.020l-123.013 123.012-123.013-123.012-41.007 41.002 123.013 123.013-123.013 123.018h205.020l41.007 41.002-41.007 41.007 41.007 41.002 164.020-164.020-41.007-41.007-41.002 41.007z"  horiz-adv-x="1928" />

    
    <glyph glyph-name="google" unicode="&#59435;" d="M520.972 448.322v-154.322h255.234c-10.378-66.263-77.175-194.063-255.234-194.063-153.647 0-278.972 127.266-278.972 284.063s125.325 284.063 278.972 284.063c87.356 0 145.912-37.266 179.297-69.441l122.175 117.591c-78.412 73.462-180 117.787-301.472 117.787-248.737 0-450-201.263-450-450s201.262-450 450-450c259.622 0 432.084 182.644 432.084 439.622 0 29.531-3.178 52.031-7.031 74.531l-425.053 0.169z"  horiz-adv-x="1024" />

    
    <glyph glyph-name="twitter" unicode="&#59687;" d="M1024.224 669.6c-37.6-16.8-78.208-28-120.608-32.992 43.392 26.016 76.608 67.2 92.384 116.192-40.608-24-85.6-41.6-133.408-51.008-38.4 40.8-92.992 66.208-153.408 66.208-116 0-210.016-94.016-210.016-210.016 0-16.384 1.792-32.384 5.408-47.808-174.592 8.8-329.408 92.416-432.992 219.584-18.016-31.008-28.384-67.2-28.384-105.6 0-72.8 36.992-137.184 93.408-174.816-34.4 0.992-66.784 10.592-95.2 26.208 0-0.8 0-1.792 0-2.592 0-101.792 72.416-186.816 168.608-205.984-17.6-4.8-36.192-7.392-55.392-7.392-13.6 0-26.592 1.408-39.584 3.808 26.816-83.392 104.416-144.192 196.192-146.016-72-56.384-162.4-90.016-260.992-90.016-16.992 0-33.6 0.992-50.208 3.008 93.216-59.808 203.584-94.4 322.208-94.4 386.4 0 597.792 320.192 597.792 597.792 0 9.184-0.192 18.208-0.608 27.2 40.992 29.408 76.608 66.4 104.8 108.608z"  horiz-adv-x="1025" />

    
    <glyph glyph-name="csdn" unicode="&#58903;" d="M881.8209621875-20.745742500000006c-46.3979821875-16.242747187499997-142.65431999999998-27.106422187499998-277.0668684375-27.106422187499998-386.761775625 0-595.521995625 181.79290406249999-570.755428125 422.1090103125C63.44877875000003 660.595828125 372.6749628125 821.7886190625 711.30809 821.7886190625c131.0903203125 0 208.24696875-10.6766015625 280.672104375-28.371804375l-23.1750075-192.95877374999998c-48.2197865625 16.26673125-160.9577503125 31.132812187500004-252.3003 31.132812187500004-199.1139609375 0-368.404621875-59.461444687500006-387.6002475-247.386511875-17.2778859375-168.1202540625 101.357199375-248.460024375 325.42576125-248.460024375 78.04788375 0 193.030725 11.141885624999999 246.1690978125 27.388470937500003L881.8209621875-20.745742500000006z"  horiz-adv-x="1024" />

    
    <glyph glyph-name="tongzhi" unicode="&#59115;" d="M940.284 75.055c-3.557 82.633-44.788 155.954-106.889 203.186v224.242c0 129.524-92.659 238.481-215.106 264.225v5.127c0 59.084-48.457 107.425-107.681 107.425v0c-59.225 0-107.681-48.341-107.681-107.425v-5.127c-122.447-25.744-215.105-134.701-215.105-264.225v-224.242c-62.101-47.232-103.334-120.553-106.89-203.186h106.89v-0.722h645.575v0.722h106.889zM487.888-119.764h26.731c70.064 0 128.318 52.849 136.786 120.555h-281.295c8.469-67.706 66.722-120.555 136.787-120.555h-19.009z"  horiz-adv-x="1024" />

    
    <glyph glyph-name="smile" unicode="&#58914;" d="M510.639-44.185c-182.661 0-352.072 82.562-464.714 226.565-22.272 28.513-17.313 69.666 11.2 91.938 28.448 22.337 69.666 17.377 92.002-11.2 87.618-112.002 219.428-176.228 361.512-176.228 143.587 0 276.23 65.346 363.847 179.299 22.081 28.706 63.171 34.146 91.875 12.066 28.704-22.080 34.145-63.233 12.064-91.875-112.642-146.563-283.174-230.565-467.786-230.565v0zM215.721 484.498c-54.337 0-98.306 43.969-98.306 98.306v131.074c0 54.337 43.969 98.307 98.306 98.307 54.336 0 98.306-43.97 98.306-98.307v-131.074c0-54.274-44.033-98.306-98.306-98.306v0zM805.558 484.498c-54.274 0-98.306 43.969-98.306 98.306v131.074c0 54.337 44.033 98.307 98.306 98.307s98.305-43.97 98.305-98.307v-131.074c0-54.274-44.033-98.306-98.305-98.306v0z"  horiz-adv-x="1025" />

    
    <glyph glyph-name="profile" unicode="&#58958;" d="M84.437 751.058v-677.647c0-62.4 50.542-112.942 112.942-112.942h903.53c62.4 0 112.942 50.542 112.942 112.942v564.706c0 62.4-50.542 112.942-112.942 112.942h-508.236l-112.942 112.942h-282.352c-62.4 0-112.942-50.542-112.942-112.942zM423.261 581.648c62.4 0 112.942-50.542 112.942-112.942 0-62.344-50.542-112.942-112.942-112.942-62.4 0-112.942 50.598-112.942 112.942 0 62.4 50.542 112.942 112.942 112.942v0zM762.084 581.648h338.824v-112.942h-338.824v112.942zM762.084 412.236h338.824v-112.942h-338.824v112.942zM423.261 299.294c149.138 0 225.882-123.53 225.882-123.53v-45.882h-451.764v45.882c0 0 76.744 123.53 225.882 123.53v0zM762.084 242.824h338.824v-112.942h-338.824v112.942z"  horiz-adv-x="1317" />

    
    <glyph glyph-name="game" unicode="&#58896;" d="M947.1343552 528.2255946666667C832.2140672 808.1279466666667 670.2085962666666 686.3670613333334 606.5147434666667 645.7841013333334c-26.497899733333334-16.888100266666665-54.615625599999994-24.011402666666665-78.49058666666666-26.65726293333333-27.169189333333335 0.30235306666666667-65.30603733333334 5.639917866666667-100.5470656 28.081705600000003-63.895784533333334 40.68556266666667-226.40117546666667 162.74116053333333-341.6816672-117.84885333333334C-29.482884266666588 248.7751338666667 24.684123733333365 67.79347306666659 123.2991872 66.39413546666674 221.90988480000004 64.99043200000006 253.8577770666667 135.13848213333335 310.80381120000004 175.8196789333333c41.547868799999996 29.681882666666667 142.0108864 36.190656 193.427248 37.55178986666667 29.085909333333333 0.06658346666666666 167.878976-1.5597919999999998 218.59566826666665-37.82139733333334 56.767024-40.5840512 88.61558826666666-110.55963946666667 186.92284053333333-109.155936C1008.0568213333333 67.78910719999999 1062.0579168 248.32542506666664 947.1343552 528.2255946666667zM369.53558400000003 396.75448853333336l-36.70585706666667 0 0-36.70694826666667c0-20.272923733333336-16.435115733333333-36.70694826666667-36.70585706666667-36.70694826666667-20.272923733333336 0-36.70694826666667 16.434024533333332-36.70694826666667 36.70694826666667l0 36.70694826666667-36.70694826666667 0c-20.271832533333335 0-36.70585706666667 16.434024533333332-36.70585706666667 36.70585706666667 0 20.272923733333336 16.434024533333332 36.70585706666667 36.70585706666667 36.70585706666667l36.70694826666667 0 0 36.70694826666667c0 20.271832533333335 16.435115733333333 36.70585706666667 36.70694826666667 36.70585706666667 20.271832533333335 0 36.70585706666667-16.435115733333333 36.70585706666667-36.70585706666667l0-36.70694826666667 36.70585706666667 0c20.274014933333333 0 36.70694826666667-16.434024533333332 36.70694826666667-36.70585706666667C406.24362346666663 413.18960426666666 389.8106912 396.75448853333336 369.53558400000003 396.75448853333336zM697.7892906666666 396.34734933333334c-35.476797866666665 0-64.23524906666667 28.761725866666666-64.23524906666667 64.23524906666667 0 35.47788906666666 28.7584512 64.239616 64.23524906666667 64.239616 35.47788906666666 0 64.23634133333333-28.760634666666665 64.23634133333333-64.239616C762.0245397333333 425.1090752 733.2671797333334 396.34734933333334 697.7892906666666 396.34734933333334zM878.8604565333334 287.0134944c-35.418947200000005 0-64.13155413333332 28.712608-64.13155413333332 64.12937173333333 0 35.418947200000005 28.712608 64.13046293333333 64.13155413333332 64.13046293333333 35.417856 0 64.13046293333333-28.712608 64.13046293333333-64.13046293333333C942.9909194666666 315.72610239999995 914.2794037333333 287.0134944 878.8604565333334 287.0134944z"  horiz-adv-x="1024" />

    
    <glyph glyph-name="back-o" unicode="&#58904;" d="M134.124 503.235c-10.817-10.711-21.050-20.864-30.409-30.171-6.071-6.019-11.824-11.718-17.1-16.994-23.278-23.065-38.045-37.78-38.045-37.78-19.275-19.089-19.275-50.054 0-69.17 0 0 17.047-16.942 43.374-43.082 7.424-7.37 15.589-15.456 24.311-24.126 7.344-7.344 15.138-15.033 23.225-23.065 9.65-9.545 97.14-96.425 110.21-109.414 13.15-13.044 25.955-25.744 38.018-37.727 13.839-13.733 26.698-26.486 38.018-37.753 28.579-28.368 47.404-47.033 47.404-47.033 31.019-30.807 84.123-8.988 84.123 34.598v125.455c8.112 0.397 16.146 1.034 24.391 1.034 158.78 0 306.559-46.661 430.263-126.861 39.53-25.664 89.478 12.222 74.075 56.524-16.834 48.358-38.973 94.276-65.75 137.014-22.933 36.56-49.26 70.841-78.529 102.364-17.127 18.426-35.261 35.923-54.323 52.441-19.22 16.623-39.396 32.212-60.42 46.688-23.012 15.827-47.059 30.331-72.006 43.347-22.8 11.904-46.343 22.588-70.575 31.947-34.545 13.362-70.416 24.046-107.399 31.788-11.454 2.413-19.725 12.195-19.725 23.807v118.829c0 43.586-53.104 65.431-84.123 34.598 0 0-11.427-11.294-29.932-29.694-10.155-10.048-22.429-22.243-36.11-35.844-13.441-13.309-28.208-27.997-43.717-43.374-13.522-13.441-116.045-115.22-129.247-128.343z"  horiz-adv-x="1024" />

    
    <glyph glyph-name="fast-forward" unicode="&#58938;" d="M62.278613 71.552A64.106667 64.106667 0 0 0 28.486613 128V640a64.021333 64.021333 0 1 0 99.52 53.248l384-256a64 64 0 0 0-0.064-106.496l-384-256a63.872 63.872 0 0 0-65.664-3.2z m512 0A64.106667 64.106667 0 0 0 540.486613 128V640a64.021333 64.021333 0 1 0 99.52 53.248l384-256a64 64 0 0 0-0.064-106.496l-384-256a63.872 63.872 0 0 0-65.664-3.2z"  horiz-adv-x="1052" />

    
    <glyph glyph-name="pause" unicode="&#58989;" d="M768 64h-128c-35.392 0-64 28.608-64 64V640c0 35.392 28.608 64 64 64h128c35.392 0 64-28.608 64-64v-512c0-35.392-28.608-64-64-64z m-384 0h-128c-35.392 0-64 28.608-64 64V640c0 35.392 28.608 64 64 64h128c35.392 0 64-28.608 64-64v-512c0-35.392-28.608-64-64-64z"  horiz-adv-x="1024" />

    
    <glyph glyph-name="play" unicode="&#58990;" d="M238.933 42.667c-12.493 0-24.917 3.413-35.908 10.172-19.54 12.27-32.342 33.697-32.358 58.116v546.112c0 23.689 12.288 45.67 32.358 58.095 10.219 6.378 22.628 10.16 35.922 10.16 11.114 0 21.61-2.643 30.894-7.335l545.741-272.886c22.551-11.477 37.731-34.515 37.731-61.099 0-26.583-15.18-49.621-37.343-60.919l-546.521-273.246c-9.557-4.779-20.139-7.168-30.515-7.168z"  horiz-adv-x="1024" />

    
    <glyph glyph-name="rewind" unicode="&#59003;" d="M990.208 71.552a63.872 63.872 0 0 0-65.664 3.2l-384 256a64 64 0 0 0-0.064 106.496l384 256A64.021333 64.021333 0 0 0 1024 640v-512a64.106667 64.106667 0 0 0-33.792-56.448z m-512 0a63.872 63.872 0 0 0-65.664 3.2l-384 256a64 64 0 0 0-0.064 106.496l384 256A64.021333 64.021333 0 0 0 512 640v-512a64.106667 64.106667 0 0 0-33.792-56.448z"  horiz-adv-x="1024" />

    
    <glyph glyph-name="image" unicode="&#58988;" d="M614.293 175.040l-50.667-48.96c-15.573-15.040-36.16-23.36-57.813-23.36s-42.24 8.32-57.813 23.36l-149.973 144.853c-9.173 8.853-23.467 8.853-32.64 0l-231.467-223.36c8.32-79.36 75.52-141.333 157.013-141.333h638.4c31.68 0 61.12 9.387 85.867 25.493l-250.453 243.413c-14.080 13.547-36.267 13.547-50.453-0.107zM676.373 635.413c-52.587 0-95.467-42.773-95.467-95.467s42.773-95.467 95.467-95.467c52.587 0 95.467 42.773 95.467 95.467s-42.88 95.467-95.467 95.467zM829.44 860.373h-638.507c-87.040 0-157.867-70.827-157.867-157.867v-572.8l190.933 184.213c15.573 15.040 36.16 23.36 57.813 23.36s42.24-8.32 57.813-23.36l149.973-144.853c9.173-8.853 23.467-8.853 32.64 0l50.667 48.96c18.027 17.387 41.707 26.987 66.773 26.987s48.747-9.6 66.773-26.987l252.053-244.907c18.24 25.707 28.907 57.173 28.907 90.987v638.4c-0.107 87.040-70.933 157.867-157.973 157.867zM676.373 384.747c-85.547 0-155.2 69.653-155.2 155.2s69.653 155.2 155.2 155.2 155.2-69.653 155.2-155.2-69.653-155.2-155.2-155.2z"  horiz-adv-x="1024" />

    
    <glyph glyph-name="images" unicode="&#58894;" d="M363.777 860.002c-47.965 7.994-63.954 3.998-75.946-27.98h219.842l-143.897 27.98zM1015.308 52.582v663.524c0 59.957-11.992 71.948-71.948 71.948h-819.412c-59.957 0-71.948-11.992-71.948-71.948v-663.524c0-59.957 11.992-71.948 71.948-71.948h819.412c59.957-3.998 71.948 7.994 71.948 71.948zM775.481 656.15c47.965 0 87.937-39.971 87.937-91.934s-39.971-91.934-87.937-91.934c-47.965 0-87.937 39.971-87.937 91.934s39.971 91.934 87.937 91.934zM167.917 148.514c79.942 119.914 223.839 319.77 259.813 319.77s155.888-159.885 207.85-215.845c0 0 67.951 95.932 103.926 95.932 35.974 0 159.885-195.86 163.882-195.86h-735.472zM1171.197 704.115l-111.92 19.986v-675.515c0-31.977-3.997-63.954-27.98-87.937-23.983-23.983-55.959-23.983-87.937-23.983h-67.951l139.899-27.98c59.957-11.992 71.948-3.998 83.94 59.957l119.914 651.533c19.986 55.959 11.992 71.948-47.965 83.94z"  horiz-adv-x="1279" />

    
    <glyph glyph-name="send" unicode="&#59154;" d="M977.001 858.107q17.678-12.857 14.465-34.285l-137.143-822.857q-2.678-15.535-17.143-24.107-7.5-4.285-16.607-4.285-5.893 0-12.857 2.678l-242.678 99.107-129.643-158.035q-9.643-12.322-26.25-12.322-6.965 0-11.785 2.143-10.178 3.75-16.34 12.59t-6.16 19.553v186.965l462.857 567.322-572.678-495.535-211.607 86.785q-19.822 7.5-21.428 29.465-1.072 21.428 17.143 31.607l891.428 514.285q8.035 4.822 17.143 4.822 10.715 0 19.285-5.893z"  horiz-adv-x="1024" />

    
    <glyph glyph-name="camera-o" unicode="&#58911;" d="M512 465.067c-84.833-0.009-153.6-68.782-153.6-153.616 0-84.84 68.776-153.616 153.616-153.616 0.006 0 0.011 0 0.017 0 84.832 0.009 153.599 68.782 153.599 153.616 0 84.84-68.776 153.616-153.616 153.616-0.006 0-0.011 0-0.017 0zM921.6 618.667h-122.88c-16.896 0-35.136 13.12-40.384 29.184l-31.808 95.296c-5.376 16.032-23.488 29.12-40.448 29.12h-348.16c-16.896 0-35.136-13.12-40.384-29.088l-31.84-95.328c-5.312-16.064-23.488-29.184-40.384-29.184h-122.88c-56.481-0.181-102.219-45.919-102.4-102.383v-460.817c0-56.32 46.080-102.4 102.4-102.4h819.2c56.32 0 102.4 46.080 102.4 102.4v460.8c0 56.32-46.080 102.4-102.4 102.4zM512 55.467c-141.408 0-256 114.592-256 256s114.592 256 256 256c141.376 0 256-114.592 256-256s-114.624-256-256-256zM896 454.827c-19.796 0.009-35.84 16.059-35.84 35.856 0 19.803 16.053 35.856 35.856 35.856 0.006 0 0.011 0 0.017 0 19.795-0.009 35.839-16.059 35.839-35.856 0-19.803-16.053-35.856-35.856-35.856-0.006 0-0.011 0-0.017 0z"  horiz-adv-x="1024" />

    
    <glyph glyph-name="eye" unicode="&#58912;" d="M676.8 864c-404.8 0-644.8-480-644.8-480s240-480 644.8-480c395.2 0 635.2 480 635.2 480s-240 480-635.2 480zM672 64c-176 0-320 142.4-320 320 0 176 144 320 320 320 177.6 0 320-144 320-320 0-177.6-142.4-320-320-320zM832 384c0-88.8-71.2-160-160-160s-160 71.2-160 160c0 88.8 71.2 160 160 160 88.8 0 160-71.2 160-160z"  horiz-adv-x="1365" />

    
    <glyph glyph-name="hot" unicode="&#59012;" d="M523.13088 577.792l-35.26656 35.26656 68.3008 68.3008-70.54336 70.54848-68.29568-68.3008-35.27168 35.27168 165.56032 165.56032 35.26656-35.27168-66.79552-66.80064 70.53312-70.54848 66.81088 66.81088 35.28192-35.28192-165.5808-165.5552z m108.92288 52.25984c25.92768 25.93792 54.62016 39.4752 86.03648 40.61696 31.42656 1.14176 59.57632-10.72128 84.44416-35.58912 23.6544-23.65952 34.82112-50.57536 33.5104-80.75264-1.31584-30.17728-14.336-57.63072-39.0656-82.3552-25.79456-25.79968-54.23104-39.22944-85.2992-40.2944-31.06304-1.06496-58.74176 10.5472-83.0464 34.85184-23.72096 23.72608-35.21536 50.77504-34.46272 81.17248 0.73728 30.39232 13.36832 57.83552 37.88288 82.35008z m39.00928-35.16416c-16.10752-16.10752-25.37984-33.15712-27.83744-51.14368-2.46272-17.99168 3.072-33.76128 16.62464-47.29856 13.80352-13.81888 29.47072-19.6864 46.96064-17.5872 17.50016 2.10432 34.49856 11.41248 51.04128 27.95008 17.24416 17.24928 27.136 34.61632 29.66528 52.10624 2.52416 17.49504-3.01568 33.0496-16.62976 46.65856-13.80864 13.824-29.82912 19.57376-48.04096 17.26464-18.2016-2.31424-35.46624-11.63264-51.78368-27.95008z m311.35232-202.97216l-47.25248 47.24736-136.69888-136.704-35.37408 35.3792 136.704 136.69888-47.1296 47.13472 28.85632 28.86144 129.76128-129.76128-28.86656-28.85632zM942.92992 896H3.93728L1024-124.0576V790.3488C1024 848.72192 987.72992 896 942.92992 896z"  horiz-adv-x="1024" />

    
    <glyph glyph-name="youtube" unicode="&#59289;" d="M836.907 760.149c-153.771 10.496-496.256 10.453-649.813 0-166.272-11.349-185.856-111.787-187.093-376.149 1.237-263.893 20.651-364.757 187.093-376.149 153.6-10.453 496.043-10.496 649.813 0 166.272 11.349 185.856 111.787 187.093 376.149-1.237 263.893-20.651 364.757-187.093 376.149zM384 213.333v341.333l341.333-170.368-341.333-170.965z"  horiz-adv-x="1024" />

    
    <glyph glyph-name="trend-o" unicode="&#58924;" d="M76.994 370.233c-31.233 0-56.302-25.069-56.302-56.302v-292.196c0-31.233 25.069-56.302 56.302-56.302s56.302 25.069 56.302 56.302v292.196c0 31.233-25.069 56.302-56.302 56.302zM953.993 640.237c-31.233 0-56.302-25.069-56.302-56.302v-562.199c0-31.233 25.069-56.302 56.302-56.302s56.302 25.069 56.302 56.302v562.199c0 30.822-25.069 56.302-56.302 56.302zM369.6 819.828c-31.233 0-56.302-25.069-56.302-56.302v-741.791c0-31.233 25.069-56.302 56.302-56.302s56.302 25.069 56.302 56.302v742.202c0 30.822-25.479 55.891-56.302 55.891zM661.796 505.029c-31.233 0-56.302-25.069-56.302-56.302v-426.992c0-31.233 25.069-56.302 56.302-56.302s56.302 25.069 56.302 56.302v427.403c0 30.822-25.069 55.891-56.302 55.891z"  horiz-adv-x="1024" />

    
    <glyph glyph-name="friend-o-d" unicode="&#58901;" d="M621.227 83.627c0 163.84-136.533 300.373-300.373 300.373s-300.373-136.533-300.373-300.373v-81.92h600.747v81.92zM675.84 56.32h327.68v65.536c0 147.456-120.149 262.144-273.067 262.144-60.075 0-120.149-21.845-163.84-54.613 65.536-54.613 109.227-147.456 109.227-245.76v-27.307zM566.613 602.453c0 0 0 0 0 0 0-90.486 73.354-163.84 163.84-163.84 90.486 0 163.84 73.354 163.84 163.84 0 0 0 0 0 0 0 90.486-73.354 163.84-163.84 163.84-90.486 0-163.84-73.354-163.84-163.84 0 0 0 0 0 0zM129.707 629.76c0-105.567 85.58-191.147 191.147-191.147s191.147 85.58 191.147 191.147c0 105.567-85.58 191.147-191.147 191.147-105.567 0-191.147-85.58-191.147-191.147z"  horiz-adv-x="1024" />

    
    <glyph glyph-name="top-o" unicode="&#58909;" d="M1008.942 366.452c-2.441-9.698-11.086-16.765-21.38-16.765-5.996 0-11.433 2.397-15.404 6.285l-89.563 86.927-271.088-263.086c-12.313-11.814-29.062-19.090-47.511-19.090s-35.196 7.275-47.534 19.113l-164.506 159.559-216.146-209.783c-13.059-12.508-30.813-20.207-50.364-20.207s-37.302 7.7-50.388 20.231c-12.815 12.327-20.791 29.658-20.791 48.849 0 19.193 7.977 36.522 20.797 48.854l265.406 257.582c1.398 1.189 2.509 2.673 3.242 4.357l0.673-0.557c12.317 11.812 29.066 19.085 47.514 19.085s35.197-7.274 47.537-19.108l164.4-159.547 218.042 211.492-85.415 82.898c-3.95 3.817-6.403 9.161-6.403 15.076 0 10.246 7.355 18.774 17.073 20.594 4.029 0.812 8.512 1.262 13.1 1.263h205.197c0.341 0.004 0.745 0.006 1.148 0.006 45.79 0 83.001-36.735 83.769-82.343l0.001-199.261c0-0.059 0-0.13 0-0.202 0-4.338-0.512-8.557-1.479-12.599z"  horiz-adv-x="1024" />

    
    </font>
</defs>
</svg>
